<?xml version="1.0" standalone="no"?>
<!DOCTYPE svg PUBLIC "-//W3C//DTD SVG 1.1//EN" "http://www.w3.org/Graphics/SVG/1.1/DTD/svg11.dtd" >
<svg xmlns="http://www.w3.org/2000/svg" xmlns:xlink="http://www.w3.org/1999/xlink" version="1.1">
<metadata></metadata>
<defs>
<font id="iciel_quarionmedium" horiz-adv-x="1241" >
<font-face units-per-em="2048" ascent="1597" descent="-451" />
<missing-glyph horiz-adv-x="505" />
<glyph unicode="&#xfb01;" horiz-adv-x="1271" d="M33 844v166h155v65q0 178 119 278.5t311 100.5q79 0 127 -10v-187q-39 23 -110 23q-96 0 -155.5 -51t-59.5 -156v-63h702v-1010h-233v844h-469v-844h-232v844h-155zM852 1319q0 67 43.5 108t110.5 41q68 0 111.5 -41t43.5 -108q0 -66 -43.5 -107t-111.5 -41 q-67 0 -110.5 41.5t-43.5 106.5z" />
<glyph horiz-adv-x="0" />
<glyph horiz-adv-x="682" />
<glyph horiz-adv-x="0" />
<glyph horiz-adv-x="0" />
<glyph unicode="&#xd;" horiz-adv-x="512" />
<glyph unicode=" "  horiz-adv-x="505" />
<glyph unicode="&#x09;" horiz-adv-x="505" />
<glyph unicode="&#xa0;" horiz-adv-x="505" />
<glyph unicode="!" horiz-adv-x="624" d="M160 131q0 65 43 106.5t110 41.5q68 0 112 -41t44 -107q0 -67 -44 -108t-112 -41q-67 0 -110 41t-43 108zM174 1434h277l-52 -949h-174z" />
<glyph unicode="&#x22;" horiz-adv-x="800" d="M109 1434h241l-33 -521h-174zM449 1434h241l-33 -521h-174z" />
<glyph unicode="#" horiz-adv-x="1521" d="M68 350v176h282l90 353h-313v176h358l97 372h186l-96 -372h344l96 372h186l-96 -372h252v-176h-297l-92 -353h330v-176h-375l-90 -350h-187l91 350h-345l-90 -350h-184l90 350h-237zM535 526h344l92 353h-344z" />
<glyph unicode="$" horiz-adv-x="1320" d="M88 377l250 57q53 -203 254 -254v443q-56 15 -96.5 28t-91.5 33.5t-87 42t-73 53.5t-59.5 69t-37 86t-14.5 107q0 176 123 288t336 122v197h135v-199q167 -19 291 -104.5t178 -245.5l-248 -51q-52 176 -221 213v-431q189 -53 264 -87q179 -82 224 -225q16 -54 16 -116 q0 -185 -138.5 -300t-365.5 -123v-195h-135v201q-187 23 -321 121.5t-183 269.5zM383 1079q0 -77 53.5 -125t155.5 -84v400q-100 -10 -154.5 -62.5t-54.5 -128.5zM727 168q122 6 191 62t69 141q0 83 -66.5 130t-193.5 85v-418z" />
<glyph unicode="%" horiz-adv-x="1828" d="M57 1083q0 157 109 261t276 104q163 0 270 -104t107 -261q0 -159 -108 -263.5t-273 -104.5t-273 104.5t-108 263.5zM242 1083q0 -98 55 -159.5t145 -61.5q87 0 141 62t54 159q0 96 -55 156.5t-144 60.5q-88 0 -142 -60.5t-54 -156.5zM293 0l555 731l493 703h189 l-537 -717l-508 -717h-192zM1010 348q0 159 108 264t273 105t273 -105t108 -264q0 -157 -107 -260.5t-270 -103.5q-167 0 -276 103.5t-109 260.5zM1194 348q0 -96 54 -156.5t143 -60.5t143.5 60.5t54.5 156.5q0 98 -53.5 159.5t-140.5 61.5q-90 0 -145.5 -62t-55.5 -159z " />
<glyph unicode="&#x26;" horiz-adv-x="1460" d="M88 381q0 78 23 140.5t67 108.5t93.5 78.5t117.5 63.5q-86 93 -122 160.5t-36 152.5q0 168 115.5 268.5t294.5 100.5q175 0 289 -98t114 -258q0 -73 -27.5 -134t-78 -106t-103 -76.5t-120.5 -60.5l276 -293q61 119 88 301l205 -39q-45 -259 -147 -414l262 -276h-271 l-120 127q-172 -147 -433 -147q-219 0 -353 107.5t-134 293.5zM313 387q0 -101 74.5 -160t198.5 -59q172 0 286 100l-358 373q-96 -44 -148.5 -104t-52.5 -150zM438 1100q0 -49 24 -96.5t49 -75t75 -76.5q58 24 99 45.5t83 52.5t64 70.5t22 85.5q0 83 -60 133.5t-149 50.5 q-88 0 -147.5 -51t-59.5 -139z" />
<glyph unicode="'" horiz-adv-x="460" d="M109 1434h241l-33 -521h-174z" />
<glyph unicode="(" horiz-adv-x="677" d="M96 588q0 224 85.5 448t250.5 398h211q-326 -399 -326 -846t326 -846h-211q-165 174 -250.5 398t-85.5 448z" />
<glyph unicode=")" horiz-adv-x="677" d="M35 -258q325 398 325 846t-325 846h211q165 -174 250.5 -398t85.5 -448t-85.5 -448t-250.5 -398h-211z" />
<glyph unicode="*" horiz-adv-x="884" d="M76 1055l260 119l-260 116l84 144l229 -164l-27 280h164l-26 -280l229 164l80 -144l-256 -116l256 -119l-80 -142l-229 166l26 -280h-164l27 278l-229 -164z" />
<glyph unicode="+" horiz-adv-x="1110" d="M92 592v168h365v373h194v-373h367v-168h-367v-373h-194v373h-365z" />
<glyph unicode="," horiz-adv-x="530" d="M98 -193q81 11 139.5 50.5t57.5 89.5q0 24 -37 33q-147 26 -147 149q0 67 42.5 107t112.5 40q82 0 124 -59.5t42 -165.5q0 -139 -79.5 -229t-237.5 -107z" />
<glyph unicode="-" horiz-adv-x="837" d="M109 469v193h620v-193h-620z" />
<glyph unicode="." horiz-adv-x="530" d="M113 131q0 65 43 106.5t110 41.5q68 0 112 -41t44 -107q0 -67 -44 -108t-112 -41q-67 0 -110 41t-43 108z" />
<glyph unicode="/" horiz-adv-x="880" d="M0 -258l336 866l293 826h211l-336 -867l-295 -825h-209z" />
<glyph unicode="0" horiz-adv-x="1284" d="M57 715q0 343 157.5 541t428.5 198t428.5 -198t157.5 -541q0 -341 -157.5 -538t-428.5 -197t-428.5 197t-157.5 538zM315 715q0 -537 328 -537t328 537q0 540 -328 540t-328 -540z" />
<glyph unicode="1" horiz-adv-x="948" d="M47 1200l483 234h213v-1434h-254v1249l-358 -248z" />
<glyph unicode="2" horiz-adv-x="1243" d="M47 1071q63 177 206.5 280t344.5 103q113 0 208.5 -30t167.5 -88t113 -150t41 -209q0 -51 -9 -96t-45 -115t-98.5 -141.5t-178 -169.5t-275.5 -205l-114 -74l751 35v-211h-1053v150l283 212q129 99 223.5 189t145 153t79.5 122.5t36.5 94t7.5 70.5q-2 117 -77 190.5 t-206 73.5q-116 0 -193 -68.5t-112 -193.5z" />
<glyph unicode="3" horiz-adv-x="1243" d="M51 356l244 74q83 -254 330 -254q134 0 215.5 65.5t81.5 174.5t-80 174t-228 65h-100v166h104q141 0 208 62.5t67 156.5q0 99 -71.5 158t-190.5 59q-244 0 -320 -256l-248 76q66 175 212 276t354 101q226 0 365 -108t139 -287q0 -122 -69 -199t-222 -119 q321 -81 321 -354q0 -186 -149.5 -296.5t-392.5 -110.5q-212 0 -358.5 100.5t-211.5 275.5z" />
<glyph unicode="4" horiz-adv-x="1292" d="M51 338v147l668 949h328v-910h196v-186h-196v-338h-242v338h-754zM289 524h516l12 742z" />
<glyph unicode="5" horiz-adv-x="1265" d="M106 338l238 86q87 -254 311 -254q132 0 209.5 81t77.5 220q0 138 -74.5 219.5t-203.5 81.5q-95 0 -173 -44t-124 -122l-209 43l86 785h903l-29 -207h-700l-58 -453q119 184 359 184q205 0 337 -131.5t132 -347.5q0 -230 -151 -364.5t-388 -134.5q-194 0 -335 94.5 t-208 263.5z" />
<glyph unicode="6" horiz-adv-x="1263" d="M82 496q0 210 164 430l389 508h315l-504 -543q116 82 261 82q203 0 342 -138t139 -348q0 -222 -154.5 -364.5t-394.5 -142.5q-247 0 -402 142.5t-155 373.5zM324 485q0 -143 86 -230t231 -87q136 0 219.5 86t83.5 227t-84.5 228.5t-222.5 87.5q-144 0 -228.5 -85.5 t-84.5 -226.5z" />
<glyph unicode="7" horiz-adv-x="1243" d="M94 1223l29 211h1053v-179l-623 -1255h-303l704 1223h-860z" />
<glyph unicode="8" horiz-adv-x="1255" d="M66 381q0 74 27.5 135.5t76 105t104.5 73.5t123 50q-135 43 -206.5 127.5t-71.5 202.5q0 174 138.5 276.5t375.5 102.5q234 0 371 -103t137 -276q0 -236 -271 -330q65 -21 118.5 -50.5t101 -72.5t74 -105t26.5 -136q0 -185 -149 -293t-408 -108q-260 0 -413.5 109 t-153.5 292zM324 403q0 -109 82.5 -174t228.5 -65q143 0 222 64.5t79 174.5q0 114 -82.5 184t-220.5 70q-139 0 -224 -71t-85 -183zM354 1061q0 -101 75 -164t204 -63q127 0 200.5 61.5t73.5 163.5q0 101 -72 161t-202 60q-132 0 -205.5 -59.5t-73.5 -159.5z" />
<glyph unicode="9" horiz-adv-x="1263" d="M76 946q0 222 154.5 365t394.5 143q247 0 402 -142.5t155 -373.5q0 -210 -164 -430l-389 -508h-316l504 543q-116 -82 -260 -82q-203 0 -342 137.5t-139 347.5zM319 952q0 -141 85 -228t223 -87q144 0 228.5 85t84.5 226q0 144 -86 231t-231 87q-137 0 -220.5 -86.5 t-83.5 -227.5z" />
<glyph unicode=":" horiz-adv-x="530" d="M113 137q0 65 43 106.5t110 41.5q68 0 112 -41t44 -107q0 -67 -44 -108t-112 -41q-67 0 -110 41t-43 108zM113 877q0 67 43 108t110 41q68 0 112 -41t44 -108q0 -66 -44 -107t-112 -41q-67 0 -110 41.5t-43 106.5z" />
<glyph unicode=";" horiz-adv-x="528" d="M98 -193q81 11 139.5 50.5t57.5 89.5q0 24 -37 33q-147 26 -147 149q0 67 42.5 107t112.5 40q82 0 124 -59.5t42 -165.5q0 -139 -79.5 -229t-237.5 -107zM113 877q0 67 43 108t110 41q68 0 112 -41t44 -108q0 -66 -44 -107t-112 -41q-67 0 -110 41.5t-43 106.5z" />
<glyph unicode="&#x3c;" horiz-adv-x="1030" d="M96 592v170l805 366v-206l-612 -244l612 -244v-209z" />
<glyph unicode="=" horiz-adv-x="999" d="M88 352v180h823v-180h-823zM88 741v179h823v-179h-823z" />
<glyph unicode="&#x3e;" horiz-adv-x="1030" d="M129 225v209l612 244l-612 244v206l805 -366v-170z" />
<glyph unicode="?" horiz-adv-x="1122" d="M35 1102q70 163 211.5 257.5t326.5 94.5q209 0 335 -115.5t126 -300.5q0 -76 -22 -136.5t-57.5 -98t-78 -67t-85.5 -51t-78.5 -42.5t-57.5 -48.5t-22 -62.5v-47h-211v43q0 60 21 106t55 75.5t74.5 54t81.5 48t75 50.5t55 69t21 97q0 101 -65 164t-171 63 q-105 0 -183.5 -65.5t-115.5 -179.5zM383 131q0 65 43.5 106.5t110.5 41.5q68 0 111.5 -41t43.5 -107q0 -67 -43.5 -108t-111.5 -41q-67 0 -110.5 41t-43.5 108z" />
<glyph unicode="@" horiz-adv-x="1798" d="M61 559q0 191 69 358t187.5 284.5t282.5 185t348 67.5q234 0 413.5 -95t277.5 -267t98 -394q0 -240 -116.5 -378t-305.5 -138q-102 0 -158.5 44t-77.5 132q-41 -82 -110 -128t-162 -46q-142 0 -234 99.5t-92 269.5q0 185 107 307.5t268 122.5q87 0 151.5 -40t90.5 -124 l20 139h187l-70 -481q-14 -85 15 -127.5t89 -42.5q47 0 93 24t86.5 70t66 124.5t25.5 176.5q0 284 -181.5 464t-480.5 180q-157 0 -293.5 -59.5t-233.5 -162.5t-152.5 -248.5t-55.5 -312.5q0 -329 188.5 -526t513.5 -197q170 0 325 62t273 180l72 -117q-282 -241 -665 -241 q-192 0 -352 59.5t-271.5 167.5t-173.5 264t-62 344zM674 557q0 -108 51 -163.5t133 -55.5q73 0 122 44.5t68 105t19 130.5q0 103 -47 160.5t-127 57.5q-99 0 -159 -81t-60 -198z" />
<glyph unicode="A" horiz-adv-x="1605" d="M57 0l600 1434h279l612 -1434h-272l-152 375h-663l-150 -375h-254zM535 561h514l-261 639z" />
<glyph unicode="B" horiz-adv-x="1390" d="M170 0v1434h608q216 0 347.5 -97.5t131.5 -261.5q0 -124 -81 -215t-236 -121q186 -25 284.5 -118t98.5 -224q0 -182 -142.5 -289.5t-371.5 -107.5h-639zM424 186h326q148 0 226.5 61.5t78.5 176.5q0 98 -86 155.5t-240 57.5h-305v-451zM424 811h268q133 0 217 65.5 t84 165.5q0 96 -69.5 150.5t-196.5 54.5h-303v-436z" />
<glyph unicode="C" horiz-adv-x="1634" d="M104 717q0 213 97 381.5t269 262t388 93.5h4q249 0 432 -134q185 -134 246 -353l-264 -56q-36 157 -144 248q-107 90 -270 90h-4q-216 0 -350.5 -147.5t-134.5 -384.5t134.5 -385t350.5 -148h4q164 0 270 90q108 91 144 248l264 -55q-61 -219 -246 -353 q-184 -134 -432 -134h-4q-216 0 -388 93.5t-269 262t-97 381.5z" />
<glyph unicode="D" horiz-adv-x="1609" d="M170 0v1434h569q212 0 386.5 -89.5t277 -254.5t102.5 -373q0 -209 -102.5 -374t-277 -254t-386.5 -89h-569zM428 197h313q216 0 356 146t140 374t-140 374t-356 146h-313v-1040z" />
<glyph unicode="E" horiz-adv-x="1302" d="M170 0v1434h1018v-201h-764v-385h696v-193h-696v-454h764v-201h-1018z" />
<glyph unicode="F" horiz-adv-x="1269" d="M170 0v1434h1014v-201h-756v-410h698v-196h-698v-627h-258z" />
<glyph unicode="G" horiz-adv-x="1630" d="M104 713q0 215 97.5 384.5t270 263t390.5 93.5q246 0 428 -130.5t246 -344.5l-256 -59q-36 151 -145 240t-271 89q-220 0 -355.5 -149t-135.5 -385q0 -240 140.5 -386.5t387.5 -146.5q173 0 359 60v241h-349v191h578v-524q-92 -64 -252.5 -117t-345.5 -53 q-234 0 -413.5 94t-276.5 260t-97 379z" />
<glyph unicode="H" horiz-adv-x="1660" d="M170 0v1434h258v-607h805v607h258v-1434h-258v627h-805v-627h-258z" />
<glyph unicode="I" horiz-adv-x="638" d="M190 0v1434h259v-1434h-259z" />
<glyph unicode="J" horiz-adv-x="1265" d="M57 342l240 107q21 -65 43 -109t55.5 -81.5t81.5 -56t111 -18.5q125 0 192.5 75.5t67.5 205.5v969h258v-940q0 -236 -140.5 -375t-379.5 -139q-104 0 -189 26.5t-148 77t-109 113t-83 145.5z" />
<glyph unicode="K" horiz-adv-x="1415" d="M170 0v1434h258v-656l643 656h313l-708 -689l723 -745h-332l-639 705v-705h-258z" />
<glyph unicode="L" horiz-adv-x="1247" d="M170 0v1434h258v-1231h762v-203h-1020z" />
<glyph unicode="M" horiz-adv-x="1925" d="M170 0v1434h371l428 -785l434 785h352v-1434h-262v1176l-520 -945h-45l-518 943v-1174h-240z" />
<glyph unicode="N" horiz-adv-x="1705" d="M170 0v1434h356l779 -1184v1184h231v-1434h-354l-779 1186v-1186h-233z" />
<glyph unicode="O" horiz-adv-x="1716" d="M104 717q0 213 97 381.5t269 262t388 93.5t388 -93.5t269 -262t97 -381.5t-97 -381.5t-269 -262t-388 -93.5t-388 93.5t-269 262t-97 381.5zM373 717q0 -237 134.5 -385t350.5 -148t350.5 148t134.5 385t-134.5 384.5t-350.5 147.5t-350.5 -147.5t-134.5 -384.5z" />
<glyph unicode="P" horiz-adv-x="1355" d="M170 0v1434h612q236 0 387.5 -118.5t151.5 -309.5q0 -187 -151 -302.5t-388 -115.5h-354v-588h-258zM428 774h344q137 0 210 61t73 171q0 109 -73 169t-210 60h-344v-461z" />
<glyph unicode="Q" horiz-adv-x="1732" d="M104 717q0 213 97 381.5t269 262t388 93.5q163 0 303 -55t238.5 -151.5t154.5 -233.5t56 -297q0 -246 -129 -429t-346 -259l585 -27l-59 -217l-911 195q-300 65 -473 260t-173 477zM373 717q0 -237 134.5 -385t350.5 -148q215 0 350 148.5t135 384.5t-135 384t-350 148 q-216 0 -350.5 -147.5t-134.5 -384.5z" />
<glyph unicode="R" horiz-adv-x="1388" d="M170 0v1434h612q236 0 387.5 -118.5t151.5 -309.5q0 -171 -129 -284t-338 -132l500 -590h-322l-416 588h-188v-588h-258zM428 774h344q137 0 210 61t73 171q0 109 -73 169t-210 60h-344v-461z" />
<glyph unicode="S" horiz-adv-x="1320" d="M88 377l250 57q34 -131 131 -198.5t233 -67.5q133 0 209 56.5t76 146.5q0 52 -29 91.5t-78.5 65t-113.5 45.5t-135 39t-142 40.5t-135 54t-113.5 75.5t-78.5 109.5t-29 150.5q0 186 136 299t370 113q126 0 232.5 -33.5t195 -115t129.5 -205.5l-248 -51q-33 111 -113 167 t-196 56q-122 0 -189 -54t-67 -139q0 -69 47 -117.5t121.5 -76t165 -51t181 -54.5t165 -73.5t121.5 -120t47 -183.5q0 -191 -147 -307t-386 -116q-146 0 -267.5 42t-213 133t-129.5 222z" />
<glyph unicode="T" horiz-adv-x="1357" d="M68 1233v201h1220v-201h-483v-1233h-254v1233h-483z" />
<glyph unicode="U" horiz-adv-x="1544" d="M150 547v887h256v-887q0 -161 101 -262t265 -101t265.5 101.5t101.5 261.5v887h256v-887q0 -165 -80.5 -295t-222.5 -201t-320 -71q-270 0 -446 158.5t-176 408.5z" />
<glyph unicode="V" horiz-adv-x="1513" d="M47 1434h272l451 -1180l451 1180h245l-575 -1434h-273z" />
<glyph unicode="W" horiz-adv-x="2238" d="M57 1434h262l306 -1174l366 1174h264l365 -1198l319 1198h242l-418 -1434h-313l-344 1130l-344 -1130h-299z" />
<glyph unicode="X" horiz-adv-x="1466" d="M57 1434h318l370 -551l379 551h277l-524 -719l530 -715h-317l-369 539l-371 -539h-276l510 713z" />
<glyph unicode="Y" horiz-adv-x="1333" d="M16 1434h283l379 -650l379 650h260l-522 -875v-559h-250v553z" />
<glyph unicode="Z" horiz-adv-x="1384" d="M96 0v145l840 1086h-799v203h1129v-146l-838 -1085h858v-203h-1190z" />
<glyph unicode="[" horiz-adv-x="739" d="M160 -258v1694h497v-172h-276v-1350h276v-172h-497z" />
<glyph unicode="\" horiz-adv-x="880" d="M41 1434h211l293 -826l336 -866h-209l-295 825z" />
<glyph unicode="]" horiz-adv-x="739" d="M82 -86h276v1350h-276v172h498v-1694h-498v172z" />
<glyph unicode="^" horiz-adv-x="985" d="M68 813l342 621h165l343 -621h-205l-221 457l-224 -457h-200z" />
<glyph unicode="_" horiz-adv-x="1028" d="M20 -164h988v-162h-988v162z" />
<glyph unicode="`" horiz-adv-x="1024" d="M291 1434h319l121 -271h-184z" />
<glyph unicode="a" horiz-adv-x="1103" d="M76 256q0 84 36.5 146.5t95 97t129.5 58t141.5 36.5t129 25.5t95 32t36.5 48.5v2q0 65 -53.5 110.5t-138.5 45.5q-82 0 -147 -45.5t-97 -126.5l-207 82q66 122 186 192t275 70q185 0 296.5 -96t111.5 -256v-678h-226v168q-90 -188 -329 -188q-152 0 -243 75t-91 201z M305 270q0 -58 42.5 -93.5t113.5 -35.5q105 0 191.5 71t86.5 163v127q-41 -15 -108 -28.5t-118.5 -24.5t-102 -30.5t-78 -56.5t-27.5 -92z" />
<glyph unicode="b" horiz-adv-x="1284" d="M152 0v1434h231v-598q98 194 346 194q215 0 346 -145t131 -379t-131.5 -380t-345.5 -146q-248 0 -346 194v-174h-231zM375 506q0 -163 79.5 -255.5t219.5 -92.5q131 0 214 96.5t83 251.5q0 153 -83 249.5t-214 96.5q-139 0 -219 -92.5t-80 -253.5z" />
<glyph unicode="c" horiz-adv-x="1191" d="M78 504q0 150 66.5 269.5t190 188t283.5 68.5q188 0 319 -93.5t179 -252.5l-223 -53q-53 223 -272 223q-144 0 -225 -94.5t-81 -255.5q0 -160 81.5 -254t224.5 -94q111 0 179.5 59.5t92.5 167.5l225 -49q-47 -162 -178 -258t-322 -96q-242 0 -391 148t-149 376z" />
<glyph unicode="d" horiz-adv-x="1284" d="M78 506q0 234 131 379t346 145q248 0 346 -194v598h232v-1434h-232v174q-98 -194 -346 -194q-214 0 -345.5 146t-131.5 380zM313 506q0 -155 83 -251.5t214 -96.5q140 0 219.5 92.5t79.5 255.5q0 161 -80 253.5t-219 92.5q-131 0 -214 -96.5t-83 -249.5z" />
<glyph unicode="e" horiz-adv-x="1155" d="M78 502q0 236 142 382t366 146q223 0 357 -138.5t134 -367.5q0 -46 -2 -71h-760q13 -148 86.5 -224.5t194.5 -76.5q96 0 157 44.5t81 127.5l225 -74q-67 -127 -183.5 -198.5t-277.5 -71.5q-234 0 -377 142.5t-143 379.5zM319 600h523q-8 128 -73 197t-179 69 q-115 0 -184.5 -69t-86.5 -197z" />
<glyph unicode="f" horiz-adv-x="708" d="M33 844v166h155v65q0 178 119 278.5t311 100.5q98 0 144 -14v-189q-42 29 -127 29q-96 0 -155.5 -51t-59.5 -156v-63h293v-166h-293v-844h-232v844h-155z" />
<glyph unicode="g" horiz-adv-x="1271" d="M78 522q0 227 130.5 367.5t346.5 140.5q240 0 338 -182v162h231v-1030q0 -133 -71 -232.5t-188.5 -149t-262.5 -49.5q-182 0 -318 73t-196 200l211 84q31 -86 111 -135.5t188 -49.5q124 0 209.5 70t85.5 184v224q-99 -183 -338 -183q-215 0 -346 140t-131 366zM313 522 q0 -150 81.5 -243t217.5 -93q134 0 212.5 90.5t78.5 245.5q0 156 -78.5 247t-212.5 91q-137 0 -218 -93t-81 -245z" />
<glyph unicode="h" horiz-adv-x="1210" d="M147 0v1434h234v-600q91 196 324 196q172 0 269 -105t97 -294v-631h-231v608q0 112 -58.5 176t-154.5 64q-105 0 -170 -70.5t-76 -185.5v-592h-234z" />
<glyph unicode="i" horiz-adv-x="534" d="M115 1319q0 67 43 108t110 41q68 0 112 -41t44 -108q0 -66 -44 -107t-112 -41q-67 0 -110 41.5t-43 106.5zM152 0v1010h233v-1010h-233z" />
<glyph unicode="j" horiz-adv-x="534" d="M-147 -248q41 -28 104 -28q195 0 195 200v1086h233v-1088q0 -175 -111 -274t-299 -99q-75 0 -122 15v188zM113 1319q0 67 43 108t110 41q68 0 112 -41t44 -108q0 -66 -44 -107t-112 -41q-67 0 -110 41.5t-43 106.5z" />
<glyph unicode="k" horiz-adv-x="1148" d="M152 0v1434h233v-846l416 422h295l-478 -443l508 -567h-301l-440 524v-524h-233z" />
<glyph unicode="l" horiz-adv-x="536" d="M152 0v1434h233v-1434h-233z" />
<glyph unicode="m" horiz-adv-x="1902" d="M147 0v1010h234v-176q91 196 326 196q126 0 214 -58t126 -165q45 106 134.5 164.5t217.5 58.5q171 0 268.5 -105.5t97.5 -293.5v-631h-233v608q0 112 -58.5 176t-152.5 64q-117 0 -182.5 -83t-65.5 -216v-549h-233v608q0 112 -58.5 176t-152.5 64q-117 0 -182.5 -83 t-65.5 -216v-549h-234z" />
<glyph unicode="n" horiz-adv-x="1210" d="M147 0v1010h234v-176q91 196 324 196q172 0 269 -105t97 -294v-631h-231v608q0 112 -58.5 176t-154.5 64q-105 0 -170 -70.5t-76 -185.5v-592h-234z" />
<glyph unicode="o" d="M78 504q0 228 150.5 377t392.5 149t392 -149t150 -377t-150 -376t-392 -148t-392.5 148t-150.5 376zM315 504q0 -160 81.5 -254t224.5 -94t224 94t81 254q0 161 -81 255.5t-224 94.5q-144 0 -225 -94.5t-81 -255.5z" />
<glyph unicode="p" horiz-adv-x="1282" d="M147 -430v1440h234v-174q98 194 346 194q214 0 345.5 -146t131.5 -380t-131 -379t-346 -145q-248 0 -346 194v-604h-234zM373 504q0 -161 80 -253.5t219 -92.5q131 0 214 96.5t83 249.5q0 155 -83 251.5t-214 96.5q-140 0 -219.5 -92.5t-79.5 -255.5z" />
<glyph unicode="q" horiz-adv-x="1282" d="M78 504q0 234 131.5 380t345.5 146q248 0 346 -194v174h234v-1440h-234v604q-98 -194 -346 -194q-215 0 -346 145t-131 379zM313 504q0 -153 83 -249.5t214 -96.5q139 0 219 92.5t80 253.5q0 163 -79.5 255.5t-219.5 92.5q-131 0 -214 -96.5t-83 -251.5z" />
<glyph unicode="r" horiz-adv-x="825" d="M147 0v1010h234v-275q81 291 317 291q38 0 72 -6v-221q-39 8 -88 8q-71 0 -125.5 -26t-87 -67.5t-53 -100t-28 -116t-7.5 -124.5v-373h-234z" />
<glyph unicode="s" horiz-adv-x="989" d="M72 250l215 55q27 -84 89 -127t146 -43q82 0 129 35t47 92q0 44 -33 75t-85.5 50t-116.5 35.5t-128 39t-116.5 53t-85.5 84.5t-33 128q0 133 106 218t277 85q143 0 250 -57t158 -172l-209 -53q-25 63 -75.5 97t-119.5 34q-71 0 -115 -34.5t-44 -86.5q0 -37 25.5 -64.5 t67 -43t94.5 -32t108 -30.5t108 -38.5t94.5 -55.5t67 -82.5t25.5 -118.5q0 -139 -114.5 -226t-285.5 -87q-101 0 -190 29t-158.5 91t-97.5 150z" />
<glyph unicode="t" horiz-adv-x="839" d="M16 844v166h183v342h231v-342h328v-166h-328v-471q0 -101 58 -156t153 -55q78 0 119 28v-196q-43 -14 -137 -14q-187 0 -305.5 98t-118.5 274v492h-183z" />
<glyph unicode="u" horiz-adv-x="1210" d="M139 379v631h232v-609q0 -112 58.5 -175.5t154.5 -63.5q105 0 169.5 70.5t75.5 185.5v592h234v-1010h-234v176q-91 -196 -323 -196q-172 0 -269.5 105.5t-97.5 293.5z" />
<glyph unicode="v" horiz-adv-x="1124" d="M43 1010h256l279 -795l272 795h231l-391 -1010h-256z" />
<glyph unicode="w" horiz-adv-x="1703" d="M33 1010h248l206 -832l267 832h207l264 -830l223 830h221l-315 -1010h-273l-237 705l-236 -705h-276z" />
<glyph unicode="x" horiz-adv-x="1130" d="M53 0l381 502l-368 510h270l235 -353l252 353h246l-379 -502l375 -510h-270l-240 356l-254 -356h-248z" />
<glyph unicode="y" horiz-adv-x="1130" d="M43 1010h258l287 -676l268 676h231l-632 -1440h-279l287 506z" />
<glyph unicode="z" horiz-adv-x="966" d="M59 0v129l555 715h-528v166h797v-129l-541 -713h567v-168h-850z" />
<glyph unicode="{" horiz-adv-x="798" d="M76 504v166h78q76 0 119.5 52t29.5 155l-31 231q-20 145 73 235.5t253 90.5h127v-166h-98q-70 0 -104 -43t-25 -115l30 -233q17 -121 -36.5 -190.5t-169.5 -98.5q116 -32 169.5 -101t36.5 -190l-30 -231q-9 -71 25 -114.5t104 -43.5h98v-166h-127q-161 0 -254 91t-72 235 l31 229q14 103 -29.5 155t-119.5 52h-78z" />
<glyph unicode="|" horiz-adv-x="528" d="M170 -258v1692h188v-1692h-188z" />
<glyph unicode="}" horiz-adv-x="798" d="M74 -92h98q70 0 104 43.5t25 114.5l-31 231q-17 121 37 190t170 101q-116 29 -170 98.5t-37 190.5l31 233q9 72 -25 115t-104 43h-98v166h127q160 0 252.5 -90.5t72.5 -235.5l-30 -231q-14 -103 29.5 -155t119.5 -52h78v-166h-78q-76 0 -119.5 -52t-29.5 -155l30 -229 q21 -144 -72 -235t-253 -91h-127v166z" />
<glyph unicode="~" horiz-adv-x="925" d="M72 575q13 109 71 176.5t166 67.5q50 0 97 -16.5t76.5 -35.5t67 -35.5t71.5 -16.5q54 0 82.5 30.5t31.5 71.5l119 -31q-11 -109 -68 -175t-165 -66q-50 0 -97.5 16.5t-78 35.5t-69 35.5t-73.5 16.5q-91 0 -110 -102z" />
<glyph unicode="&#xa1;" horiz-adv-x="624" d="M160 874q0 67 43 108.5t110 41.5q68 0 112 -41.5t44 -108.5q0 -65 -44 -106t-112 -41q-67 0 -110 41t-43 106zM174 -428l51 948h174l52 -948h-277z" />
<glyph unicode="&#xa2;" horiz-adv-x="1191" d="M78 504q0 211 127.5 355t339.5 167v213h133v-211q164 -15 278.5 -107t159.5 -237l-223 -53q-46 193 -215 219v-690q86 15 140 72t75 151l225 -49q-44 -149 -158.5 -243t-281.5 -109v-197h-133v199q-212 23 -339.5 166t-127.5 354zM315 504q0 -137 60.5 -227t169.5 -113 v682q-108 -23 -169 -114t-61 -228z" />
<glyph unicode="&#xa3;" horiz-adv-x="1251" d="M76 0v172q161 116 216.5 179.5t55.5 148.5v22h-242v164h185q-11 18 -47.5 76t-52.5 89t-33 87.5t-17 112.5q0 181 130.5 292t340.5 111q187 0 325.5 -92t221.5 -254l-235 -94q-95 241 -306 241q-60 0 -107 -19t-74 -50.5t-40.5 -68.5t-13.5 -77q0 -55 21 -109.5 t68 -136.5t60 -108h433v-164h-383v-16q0 -43 -14.5 -83t-33.5 -69.5t-56 -64.5t-64 -56.5t-74 -57.5l-12 -9l839 33v-199h-1091z" />
<glyph unicode="&#xa4;" horiz-adv-x="1157" d="M92 209l172 172q-67 95 -67 217q0 121 67 213l-172 172l98 100l179 -176q94 56 213 56q115 0 206 -56l177 176l100 -100l-172 -172q65 -94 65 -213q0 -121 -65 -215l172 -174l-100 -98l-177 176q-92 -58 -210 -58q-119 0 -211 58l-177 -176zM381 598q0 -97 55.5 -159 t145.5 -62q87 0 140.5 61.5t53.5 159.5q0 96 -54.5 156.5t-143.5 60.5t-143 -60.5t-54 -156.5z" />
<glyph unicode="&#xa5;" horiz-adv-x="1292" d="M16 1434h283l358 -566l359 566h260l-449 -703h281v-127h-334v-139h334v-127h-334v-338h-250v338h-340v127h340v139h-340v127h283z" />
<glyph unicode="&#xa6;" horiz-adv-x="528" d="M170 -258v729h188v-729h-188zM170 717v717h188v-717h-188z" />
<glyph unicode="&#xa7;" horiz-adv-x="1138" d="M78 649q0 190 229 248q-145 98 -145 246q0 138 110.5 224.5t284.5 86.5q97 0 185 -28t159.5 -91t99.5 -151l-208 -49q-27 85 -89.5 128.5t-148.5 43.5q-83 0 -131.5 -37.5t-48.5 -95.5q0 -45 38 -81.5t98.5 -62.5t133.5 -51.5t146 -57.5t133.5 -71t98.5 -100t38 -138 q0 -195 -230 -250q146 -99 146 -245q0 -138 -110.5 -225t-284.5 -87q-97 0 -185.5 28.5t-159.5 91.5t-98 151l209 49q27 -84 89.5 -128t146.5 -44q83 0 131.5 38t48.5 95q0 45 -38 81.5t-98.5 62.5t-133.5 51.5t-146 57t-133.5 71t-98.5 101t-38 138.5zM299 684 q0 -30 17.5 -56.5t43.5 -46t69 -40t81 -35t94 -36.5t94 -38q142 54 142 143q0 30 -17.5 56.5t-43.5 46t-69 40t-81 35t-94 36.5t-93 38q-143 -51 -143 -143z" />
<glyph unicode="&#xa8;" horiz-adv-x="1024" d="M150 1321q0 65 41.5 106t105.5 41q67 0 109.5 -41t42.5 -106t-42.5 -105t-109.5 -40q-64 0 -105.5 40t-41.5 105zM575 1321q0 65 42 106t106 41q66 0 108.5 -40.5t42.5 -106.5q0 -65 -42 -105t-109 -40q-64 0 -106 40t-42 105z" />
<glyph unicode="&#xa9;" horiz-adv-x="1634" d="M82 721q0 208 94.5 375.5t263 262.5t379.5 95q157 0 293.5 -55.5t233 -152t151.5 -231.5t55 -290q0 -156 -55.5 -293t-152 -234.5t-234 -153.5t-295.5 -56q-157 0 -293.5 56t-233 153t-151.5 233t-55 291zM197 721q0 -132 47 -249.5t128 -201.5t196.5 -133t246.5 -49 q133 0 249.5 49t198.5 134t129.5 203t47.5 251q0 176 -80.5 320t-223 226.5t-317.5 82.5q-132 0 -248 -49t-198 -133t-129 -201.5t-47 -249.5zM428 715q0 170 111 280.5t290 110.5q125 0 219 -60.5t136 -164.5l-160 -56q-22 69 -74 109.5t-121 40.5q-105 0 -164 -70 t-59 -190q0 -119 59 -188.5t164 -69.5q69 0 121 40.5t74 110.5l160 -57q-42 -103 -136.5 -164t-218.5 -61q-179 0 -290 110t-111 279z" />
<glyph unicode="&#xaa;" horiz-adv-x="956" d="M59 784q0 75 31.5 129.5t82 82t111.5 45t122 25t111.5 15t82 22.5t31.5 40v2q0 72 -44 115t-116 43q-69 0 -124 -40t-81 -110l-192 66q52 111 157.5 175t245.5 64q165 0 264 -85t99 -232v-578h-209v152q-72 -168 -283 -168q-133 0 -211 64.5t-78 172.5zM106 211v166h734 v-166h-734zM272 805q0 -51 35.5 -82t95.5 -31q86 0 157 59.5t71 139.5v82q-28 -6 -69 -12.5t-72 -11t-66.5 -12t-60.5 -17.5t-47 -25t-33 -37.5t-11 -52.5z" />
<glyph unicode="&#xab;" horiz-adv-x="1083" d="M102 494v73l246 351h238l-312 -388l312 -385h-238zM510 494v73l246 351h237l-311 -388l311 -385h-237z" />
<glyph unicode="&#xad;" horiz-adv-x="837" d="M109 469v193h620v-193h-620z" />
<glyph unicode="&#xae;" horiz-adv-x="1079" d="M82 991q0 192 135 327.5t328 135.5q195 0 328 -134.5t133 -326.5q0 -196 -133.5 -328.5t-327.5 -132.5q-193 0 -328 132t-135 327zM166 991q0 -170 108 -277.5t271 -107.5q164 0 272.5 109t108.5 278q0 171 -107 279t-274 108q-168 0 -273.5 -108.5t-105.5 -280.5z M381 778v447h211q71 0 115.5 -37.5t44.5 -97.5q0 -51 -32.5 -85.5t-86.5 -43.5l145 -183h-114l-117 178h-74v-178h-92zM473 1024h115q33 0 52 18t19 48q0 28 -19 44.5t-52 16.5h-115v-127z" />
<glyph unicode="&#xaf;" horiz-adv-x="1024" d="M246 1237v156h534v-156h-534z" />
<glyph unicode="&#xb0;" horiz-adv-x="897" d="M102 1157q0 143 99.5 237.5t251.5 94.5q148 0 245 -94.5t97 -237.5q0 -145 -98 -240.5t-248 -95.5t-248.5 95.5t-98.5 240.5zM270 1157q0 -89 50.5 -145t132.5 -56q78 0 127 56.5t49 144.5t-49.5 143.5t-130.5 55.5q-81 -1 -130 -56.5t-49 -142.5z" />
<glyph unicode="&#xb1;" horiz-adv-x="1110" d="M92 0v166h926v-166h-926zM92 653v168h365v312h194v-312h367v-168h-367v-311h-194v311h-365z" />
<glyph unicode="&#xb2;" horiz-adv-x="702" d="M47 1364q23 97 102.5 153t194.5 56q124 0 203.5 -64.5t79.5 -183.5q0 -25 -3.5 -46t-20 -56t-46 -68t-85.5 -76.5t-134 -87.5l-49 -26l352 24v-151h-569v118l176 129q203 146 203 246q0 46 -30 74.5t-77 28.5q-49 0 -81.5 -29t-39.5 -84z" />
<glyph unicode="&#xb3;" horiz-adv-x="679" d="M43 1032l172 39q27 -108 131 -108q50 0 81.5 25t31.5 69q0 43 -33 69.5t-98 26.5h-45v107h49q60 0 86 27t26 65q0 40 -29 63t-75 23q-50 0 -81 -28t-40 -79l-176 39q27 94 105.5 148.5t193.5 54.5q119 0 193.5 -56t74.5 -151q0 -120 -141 -158q156 -37 156 -172 q0 -98 -77 -153.5t-200 -55.5q-120 0 -199 55t-106 150z" />
<glyph unicode="&#xb4;" horiz-adv-x="1024" d="M293 1163l121 271h319l-256 -271h-184z" />
<glyph unicode="&#xb6;" horiz-adv-x="1269" d="M47 1016q0 189 122.5 304.5t313.5 115.5h602v-1436h-174v1280h-184v-1280h-176v612h-68q-194 0 -315 111.5t-121 292.5z" />
<glyph unicode="&#xb7;" horiz-adv-x="530" d="M113 670q0 65 43 106t110 41q68 0 112 -41t44 -106q0 -67 -44 -108.5t-112 -41.5q-67 0 -110 41.5t-43 108.5z" />
<glyph unicode="&#xb8;" horiz-adv-x="1034" d="M299 -399l84 102q49 -43 106 -43q37 0 60.5 20.5t23.5 53.5t-23.5 53t-62.5 20q-29 0 -69 -12l-37 31l70 174h151l-65 -100h12q76 0 132 -42.5t56 -123.5q0 -90 -68.5 -142.5t-172.5 -52.5q-115 0 -197 62z" />
<glyph unicode="&#xb9;" horiz-adv-x="540" d="M31 1438l254 121h147v-721h-180v587l-168 -125z" />
<glyph unicode="&#xba;" horiz-adv-x="1054" d="M66 1001q0 200 126.5 328.5t333.5 128.5q210 0 336.5 -128t126.5 -329q0 -202 -126.5 -328t-336.5 -126q-208 0 -334 126.5t-126 327.5zM162 211v166h733v-166h-733zM285 1001q0 -138 63 -216t178 -78q116 0 181 78.5t65 215.5q0 136 -65 215.5t-181 79.5 q-114 0 -177.5 -79t-63.5 -216z" />
<glyph unicode="&#xbb;" horiz-adv-x="1083" d="M90 145l311 385l-311 388h238l245 -351v-73l-245 -349h-238zM498 145l311 385l-311 388h237l246 -351v-73l-246 -349h-237z" />
<glyph unicode="&#xbc;" horiz-adv-x="1431" d="M31 1315l254 121h147v-721h-180v588l-168 -125zM121 0l555 731l493 703h189l-537 -717l-508 -717h-192zM778 160v90l330 471h203v-447h86v-114h-86v-160h-170v160h-363zM930 274h211l22 334z" />
<glyph unicode="&#xbd;" horiz-adv-x="1562" d="M31 1315l254 121h147v-721h-180v588l-168 -125zM121 0l555 731l493 703h189l-537 -717l-508 -717h-192zM907 526q23 97 102.5 153t194.5 56q124 0 203.5 -64.5t79.5 -183.5q0 -25 -3.5 -46t-20 -55.5t-46 -67.5t-85.5 -76.5t-134 -87.5l-49 -27l352 25v-152h-569v119 l176 129q203 146 203 246q0 46 -30 74t-77 28q-49 0 -81.5 -29t-39.5 -84z" />
<glyph unicode="&#xbe;" horiz-adv-x="1480" d="M43 909l172 39q27 -108 131 -108q50 0 81.5 25t31.5 69q0 43 -33 69.5t-98 26.5h-45v107h49q60 0 86 27t26 65q0 40 -29 63t-75 23q-50 0 -81 -28t-40 -79l-176 39q27 94 105.5 148.5t193.5 54.5q119 0 193.5 -56t74.5 -151q0 -120 -141 -158q156 -37 156 -172 q0 -97 -77 -152.5t-200 -55.5q-120 0 -199 54.5t-106 149.5zM170 0l555 731l494 703h188l-537 -717l-508 -717h-192zM827 160v90l330 471h203v-447h86v-114h-86v-160h-170v160h-363zM979 274h211l22 334z" />
<glyph unicode="&#xbf;" horiz-adv-x="1122" d="M88 4q0 76 22 136.5t57.5 98t78 67t85.5 51t78.5 42.5t57.5 48.5t22 62.5v47h211v-43q0 -60 -21 -106t-55 -75.5t-75 -54t-81.5 -48t-74.5 -50.5t-55 -69t-21 -97q0 -101 65 -164t171 -63q104 0 183 66t116 180l235 -92q-70 -164 -211.5 -258.5t-326.5 -94.5 q-209 0 -335 115.5t-126 300.5zM430 911q0 67 44 108.5t112 41.5q67 0 110 -41.5t43 -108.5q0 -65 -43 -106t-110 -41q-68 0 -112 41t-44 106z" />
<glyph unicode="&#xc0;" horiz-adv-x="1605" d="M57 0l600 1434h279l612 -1434h-272l-152 375h-663l-150 -375h-254zM451 1806h319l121 -270h-184zM535 561h514l-261 639z" />
<glyph unicode="&#xc1;" horiz-adv-x="1605" d="M57 0l600 1434h279l612 -1434h-272l-152 375h-663l-150 -375h-254zM535 561h514l-261 639zM711 1520l120 270h320l-256 -270h-184z" />
<glyph unicode="&#xc2;" horiz-adv-x="1605" d="M57 0l600 1434h279l612 -1434h-272l-152 375h-663l-150 -375h-254zM471 1520l238 270h184l242 -270h-177l-153 118l-154 -118h-180zM535 561h514l-261 639z" />
<glyph unicode="&#xc3;" horiz-adv-x="1605" d="M57 0l600 1434h279l612 -1434h-272l-152 375h-663l-150 -375h-254zM469 1587q22 108 76.5 169t132.5 61q44 0 89.5 -22t86.5 -44t74 -22q58 0 92 81l119 -30q-24 -106 -79 -168t-132 -62q-44 0 -89.5 22t-86 44t-72.5 22q-31 0 -53 -19t-41 -63zM535 561h514l-261 639z " />
<glyph unicode="&#xc4;" horiz-adv-x="1605" d="M57 0l600 1434h279l612 -1434h-272l-152 375h-663l-150 -375h-254zM442 1716q0 65 42 106.5t106 41.5q66 0 108.5 -41t42.5 -107q0 -65 -42 -105t-109 -40q-64 0 -106 40t-42 105zM535 561h514l-261 639zM868 1716q0 65 42 106.5t106 41.5q66 0 108.5 -41t42.5 -107 q0 -65 -42 -105t-109 -40q-64 0 -106 40t-42 105z" />
<glyph unicode="&#xc5;" horiz-adv-x="1605" d="M57 0l600 1434h279l612 -1434h-272l-152 375h-663l-150 -375h-254zM535 561h514l-261 639zM573 1731q0 95 66.5 155t163.5 60t163 -60t66 -155t-66 -155t-163 -60t-163.5 60t-66.5 155zM694 1731q0 -49 30 -79t79 -30t78.5 29.5t29.5 79.5q0 51 -29 80.5t-79 29.5 t-79.5 -29.5t-29.5 -80.5z" />
<glyph unicode="&#xc6;" horiz-adv-x="2220" d="M57 0l914 1434h1132v-201h-764v-385h697v-193h-697v-454h764v-201h-1018v375h-534l-234 -375h-260zM668 561h417v670z" />
<glyph unicode="&#xc7;" horiz-adv-x="1634" d="M104 717q0 213 97 381.5t269 262t388 93.5q251 1 436 -133.5t246 -353.5l-264 -56q-35 157 -143.5 248t-274.5 90q-216 0 -350.5 -147.5t-134.5 -384.5t134.5 -385t350.5 -148q166 -1 274.5 90t143.5 248l264 -55q-59 -212 -233.5 -345t-413.5 -142l-53 -80h12 q76 0 132 -42.5t56 -123.5q0 -90 -68.5 -142.5t-172.5 -52.5q-115 0 -197 62l84 102q49 -43 107 -43q37 0 60.5 20.5t23.5 53.5t-23.5 53t-62.5 20q-30 0 -70 -12l-37 31l64 160q-286 36 -465 236.5t-179 494.5z" />
<glyph unicode="&#xc8;" horiz-adv-x="1302" d="M170 0v1434h1018v-201h-764v-385h696v-193h-696v-454h764v-201h-1018zM299 1806h319l121 -270h-184z" />
<glyph unicode="&#xc9;" horiz-adv-x="1302" d="M170 0v1434h1018v-201h-764v-385h696v-193h-696v-454h764v-201h-1018zM559 1520l121 270h319l-256 -270h-184z" />
<glyph unicode="&#xca;" horiz-adv-x="1302" d="M170 0v1434h1018v-201h-764v-385h696v-193h-696v-454h764v-201h-1018zM319 1520l238 270h184l242 -270h-176l-154 118l-153 -118h-181z" />
<glyph unicode="&#xcb;" horiz-adv-x="1302" d="M170 0v1434h1018v-201h-764v-385h696v-193h-696v-454h764v-201h-1018zM346 1716q0 65 42 106.5t106 41.5q66 0 108.5 -41t42.5 -107q0 -65 -42 -105t-109 -40q-64 0 -106 40t-42 105zM772 1716q0 65 42 106.5t106 41.5q66 0 108.5 -41t42.5 -107q0 -65 -42 -105t-109 -40 q-64 0 -106 40t-42 105z" />
<glyph unicode="&#xcc;" horiz-adv-x="638" d="M-33 1806h320l121 -270h-185zM190 0v1434h259v-1434h-259z" />
<glyph unicode="&#xcd;" horiz-adv-x="638" d="M190 0v1434h259v-1434h-259zM227 1520l121 270h320l-256 -270h-185z" />
<glyph unicode="&#xce;" horiz-adv-x="638" d="M-12 1585l237 270h185l241 -270h-176l-153 119l-154 -119h-180zM190 0v1434h259v-1434h-259z" />
<glyph unicode="&#xcf;" horiz-adv-x="638" d="M-41 1716q0 65 41.5 106.5t105.5 41.5q66 0 109 -41t43 -107q0 -65 -42.5 -105t-109.5 -40q-64 0 -105.5 40t-41.5 105zM190 0v1434h259v-1434h-259zM385 1716q0 65 41.5 106.5t105.5 41.5q66 0 109 -41t43 -107q0 -65 -42.5 -105t-109.5 -40q-64 0 -105.5 40t-41.5 105z " />
<glyph unicode="&#xd0;" horiz-adv-x="1652" d="M68 627v182h143v625h569q212 0 386.5 -89.5t277 -254.5t102.5 -373q0 -209 -102.5 -374t-277 -254t-386.5 -89h-569v627h-143zM469 197h313q216 0 356 146t140 374t-140 374t-356 146h-313v-428h397v-182h-397v-430z" />
<glyph unicode="&#xd1;" horiz-adv-x="1705" d="M170 0v1434h356l779 -1184v1184h231v-1434h-354l-779 1186v-1186h-233zM520 1610q22 107 76.5 168t132.5 61q44 0 89.5 -22t86.5 -44t74 -22q57 0 92 82l119 -31q-24 -106 -79 -167.5t-132 -61.5q-44 0 -89.5 22t-86 44t-72.5 22q-31 0 -53 -19t-41 -63z" />
<glyph unicode="&#xd2;" horiz-adv-x="1716" d="M104 717q0 213 97 381.5t269 262t388 93.5t388 -93.5t269 -262t97 -381.5t-97 -381.5t-269 -262t-388 -93.5t-388 93.5t-269 262t-97 381.5zM373 717q0 -237 134.5 -385t350.5 -148t350.5 148t134.5 385t-134.5 384.5t-350.5 147.5t-350.5 -147.5t-134.5 -384.5z M506 1806h319l121 -270h-184z" />
<glyph unicode="&#xd3;" horiz-adv-x="1716" d="M104 717q0 213 97 381.5t269 262t388 93.5t388 -93.5t269 -262t97 -381.5t-97 -381.5t-269 -262t-388 -93.5t-388 93.5t-269 262t-97 381.5zM373 717q0 -237 134.5 -385t350.5 -148t350.5 148t134.5 385t-134.5 384.5t-350.5 147.5t-350.5 -147.5t-134.5 -384.5z M766 1520l121 270h319l-256 -270h-184z" />
<glyph unicode="&#xd4;" horiz-adv-x="1716" d="M104 717q0 213 97 381.5t269 262t388 93.5t388 -93.5t269 -262t97 -381.5t-97 -381.5t-269 -262t-388 -93.5t-388 93.5t-269 262t-97 381.5zM373 717q0 -237 134.5 -385t350.5 -148t350.5 148t134.5 385t-134.5 384.5t-350.5 147.5t-350.5 -147.5t-134.5 -384.5z M526 1520l238 270h184l242 -270h-176l-154 118l-153 -118h-181z" />
<glyph unicode="&#xd5;" horiz-adv-x="1716" d="M104 717q0 213 97 381.5t269 262t388 93.5t388 -93.5t269 -262t97 -381.5t-97 -381.5t-269 -262t-388 -93.5t-388 93.5t-269 262t-97 381.5zM373 717q0 -237 134.5 -385t350.5 -148t350.5 148t134.5 385t-134.5 384.5t-350.5 147.5t-350.5 -147.5t-134.5 -384.5z M524 1587q22 108 76.5 169t132.5 61q44 0 89.5 -22t86.5 -44t74 -22q58 0 92 81l119 -30q-24 -106 -79 -168t-132 -62q-44 0 -89.5 22t-86 44t-72.5 22q-31 0 -53 -19t-41 -63z" />
<glyph unicode="&#xd6;" horiz-adv-x="1716" d="M104 717q0 213 97 381.5t269 262t388 93.5t388 -93.5t269 -262t97 -381.5t-97 -381.5t-269 -262t-388 -93.5t-388 93.5t-269 262t-97 381.5zM373 717q0 -237 134.5 -385t350.5 -148t350.5 148t134.5 385t-134.5 384.5t-350.5 147.5t-350.5 -147.5t-134.5 -384.5z M498 1745q0 65 41.5 106t105.5 41q67 0 109.5 -41t42.5 -106t-42.5 -105.5t-109.5 -40.5q-64 0 -105.5 40.5t-41.5 105.5zM924 1745q0 65 41.5 106t105.5 41q67 0 109.5 -41t42.5 -106t-42.5 -105.5t-109.5 -40.5q-64 0 -105.5 40.5t-41.5 105.5z" />
<glyph unicode="&#xd7;" horiz-adv-x="972" d="M68 973l125 123l294 -295l295 293l123 -123l-295 -293l295 -297l-123 -125l-295 297l-294 -295l-123 123l295 297z" />
<glyph unicode="&#xd8;" horiz-adv-x="1716" d="M104 717q0 213 97 381.5t269 262t388 93.5q258 0 447 -131l159 174l115 -111l-154 -167q187 -200 187 -502q0 -213 -97 -381.5t-269 -262t-388 -93.5q-254 0 -446 131l-172 -189l-115 111l166 180q-187 206 -187 504zM373 717q0 -186 86 -320l692 758q-124 94 -293 94 q-216 0 -350.5 -147.5t-134.5 -384.5zM565 279q129 -95 293 -95q216 0 350.5 148t134.5 385q0 184 -83 319z" />
<glyph unicode="&#xd9;" horiz-adv-x="1544" d="M150 547v887h256v-887q0 -161 101 -262t265 -101t265.5 101.5t101.5 261.5v887h256v-887q0 -165 -80.5 -295t-222.5 -201t-320 -71q-270 0 -446 158.5t-176 408.5zM420 1806h319l121 -270h-184z" />
<glyph unicode="&#xda;" horiz-adv-x="1544" d="M150 547v887h256v-887q0 -161 101 -262t265 -101t265.5 101.5t101.5 261.5v887h256v-887q0 -165 -80.5 -295t-222.5 -201t-320 -71q-270 0 -446 158.5t-176 408.5zM680 1520l121 270h319l-256 -270h-184z" />
<glyph unicode="&#xdb;" horiz-adv-x="1544" d="M150 547v887h256v-887q0 -161 101 -262t265 -101t265.5 101.5t101.5 261.5v887h256v-887q0 -165 -80.5 -295t-222.5 -201t-320 -71q-270 0 -446 158.5t-176 408.5zM426 1585l238 270h184l242 -270h-177l-153 119l-154 -119h-180z" />
<glyph unicode="&#xdc;" horiz-adv-x="1544" d="M150 547v887h256v-887q0 -161 101 -262t265 -101t265.5 101.5t101.5 261.5v887h256v-887q0 -165 -80.5 -295t-222.5 -201t-320 -71q-270 0 -446 158.5t-176 408.5zM397 1745q0 65 42 106t106 41q66 0 108.5 -40.5t42.5 -106.5q0 -65 -42 -105.5t-109 -40.5 q-64 0 -106 40.5t-42 105.5zM823 1745q0 65 42 106t106 41q66 0 108.5 -40.5t42.5 -106.5q0 -65 -42 -105.5t-109 -40.5q-64 0 -106 40.5t-42 105.5z" />
<glyph unicode="&#xdd;" horiz-adv-x="1333" d="M16 1434h283l379 -650l379 650h260l-522 -875v-559h-250v553zM575 1520l121 270h320l-256 -270h-185z" />
<glyph unicode="&#xde;" horiz-adv-x="1355" d="M170 0v1434h254v-273h364q232 0 382.5 -119.5t150.5 -308.5q0 -187 -150 -303.5t-383 -116.5h-364v-313h-254zM424 502h342q135 0 212 61t77 170q0 108 -77 169t-212 61h-342v-461z" />
<glyph unicode="&#xdf;" horiz-adv-x="1288" d="M152 0v975q0 221 130.5 350t358.5 129q204 0 328.5 -100.5t124.5 -255.5q0 -62 -22.5 -111.5t-56 -79.5t-73 -56.5t-73 -44.5t-56 -41t-22.5 -48q0 -26 23.5 -45.5t61.5 -34t84 -30t92 -39t84 -55t61.5 -84t23.5 -120.5q0 -154 -116 -241.5t-323 -87.5q-100 0 -239 32 l32 197q117 -47 203 -47q95 0 151 40t56 109q0 56 -40.5 94.5t-98.5 62t-115.5 48.5t-98 71t-40.5 113q0 55 28 98t67.5 71.5t79 56.5t67.5 68t28 91q0 80 -58.5 133.5t-160.5 53.5q-123 0 -191.5 -79.5t-68.5 -219.5v-973h-231z" />
<glyph unicode="&#xe0;" horiz-adv-x="1103" d="M76 256q0 84 36.5 146.5t95 97t129.5 58t141.5 36.5t129 25.5t95 32t36.5 48.5v2q0 65 -53.5 110.5t-138.5 45.5q-82 0 -147 -45.5t-97 -126.5l-207 82q66 122 186 192t275 70q185 0 296.5 -96t111.5 -256v-678h-226v168q-90 -188 -329 -188q-152 0 -243 75t-91 201z M201 1382h319l121 -270h-184zM305 270q0 -58 42.5 -93.5t113.5 -35.5q105 0 191.5 71t86.5 163v127q-41 -15 -108 -28.5t-118.5 -24.5t-102 -30.5t-78 -56.5t-27.5 -92z" />
<glyph unicode="&#xe1;" horiz-adv-x="1103" d="M76 256q0 84 36.5 146.5t95 97t129.5 58t141.5 36.5t129 25.5t95 32t36.5 48.5v2q0 65 -53.5 110.5t-138.5 45.5q-82 0 -147 -45.5t-97 -126.5l-207 82q66 122 186 192t275 70q185 0 296.5 -96t111.5 -256v-678h-226v168q-90 -188 -329 -188q-152 0 -243 75t-91 201z M305 270q0 -58 42.5 -93.5t113.5 -35.5q105 0 191.5 71t86.5 163v127q-41 -15 -108 -28.5t-118.5 -24.5t-102 -30.5t-78 -56.5t-27.5 -92zM461 1096l121 270h319l-256 -270h-184z" />
<glyph unicode="&#xe2;" horiz-adv-x="1103" d="M76 256q0 84 36.5 146.5t95 97t129.5 58t141.5 36.5t129 25.5t95 32t36.5 48.5v2q0 65 -53.5 110.5t-138.5 45.5q-82 0 -147 -45.5t-97 -126.5l-207 82q66 122 186 192t275 70q185 0 296.5 -96t111.5 -256v-678h-226v168q-90 -188 -329 -188q-152 0 -243 75t-91 201z M221 1096l238 270h184l242 -270h-176l-154 118l-154 -118h-180zM305 270q0 -58 42.5 -93.5t113.5 -35.5q105 0 191.5 71t86.5 163v127q-41 -15 -108 -28.5t-118.5 -24.5t-102 -30.5t-78 -56.5t-27.5 -92z" />
<glyph unicode="&#xe3;" horiz-adv-x="1103" d="M76 256q0 84 36.5 146.5t95 97t129.5 58t141.5 36.5t129 25.5t95 32t36.5 48.5v2q0 65 -53.5 110.5t-138.5 45.5q-82 0 -147 -45.5t-97 -126.5l-207 82q66 122 186 192t275 70q185 0 296.5 -96t111.5 -256v-678h-226v168q-90 -188 -329 -188q-152 0 -243 75t-91 201z M219 1163q22 108 76.5 169t132.5 61q44 0 89.5 -22t86.5 -44t74 -22q58 0 92 81l119 -30q-24 -106 -79 -168t-132 -62q-44 0 -89.5 22t-86 44t-72.5 22q-60 0 -94 -81zM305 270q0 -58 42.5 -93.5t113.5 -35.5q105 0 191.5 71t86.5 163v127q-41 -15 -108 -28.5t-118.5 -24.5 t-102 -30.5t-78 -56.5t-27.5 -92z" />
<glyph unicode="&#xe4;" horiz-adv-x="1103" d="M76 256q0 84 36.5 146.5t95 97t129.5 58t141.5 36.5t129 25.5t95 32t36.5 48.5v2q0 65 -53.5 110.5t-138.5 45.5q-82 0 -147 -45.5t-97 -126.5l-207 82q66 122 186 192t275 70q185 0 296.5 -96t111.5 -256v-678h-226v168q-90 -188 -329 -188q-152 0 -243 75t-91 201z M182 1321q0 65 42 106t106 41q66 0 108.5 -40.5t42.5 -106.5q0 -65 -42 -105t-109 -40q-64 0 -106 40t-42 105zM305 270q0 -58 42.5 -93.5t113.5 -35.5q105 0 191.5 71t86.5 163v127q-41 -15 -108 -28.5t-118.5 -24.5t-102 -30.5t-78 -56.5t-27.5 -92zM608 1321q0 65 42 106 t106 41q66 0 108.5 -40.5t42.5 -106.5q0 -65 -42 -105t-109 -40q-64 0 -106 40t-42 105z" />
<glyph unicode="&#xe5;" horiz-adv-x="1103" d="M76 256q0 84 36.5 146.5t95 97t129.5 58t141.5 36.5t129 25.5t95 32t36.5 48.5v2q0 65 -53.5 110.5t-138.5 45.5q-82 0 -147 -45.5t-97 -126.5l-207 82q66 122 186 192t275 70q185 0 296.5 -96t111.5 -256v-678h-226v168q-90 -188 -329 -188q-152 0 -243 75t-91 201z M305 270q0 -58 42.5 -93.5t113.5 -35.5q105 0 191.5 71t86.5 163v127q-41 -15 -108 -28.5t-118.5 -24.5t-102 -30.5t-78 -56.5t-27.5 -92zM313 1364q0 95 66.5 155t163.5 60t163 -60t66 -155t-66 -155t-163 -60t-163.5 60t-66.5 155zM434 1364q0 -50 30 -79.5t79 -29.5 t78.5 29.5t29.5 79.5q0 51 -29 81t-79 30t-79.5 -30t-29.5 -81z" />
<glyph unicode="&#xe6;" horiz-adv-x="1814" d="M76 256q0 84 36.5 146.5t95 97t129.5 58t141.5 36.5t129 25.5t95 32t36.5 48.5v2q0 63 -53.5 109.5t-138.5 46.5q-81 0 -146.5 -46t-97.5 -126l-207 82q66 123 182 192.5t271 69.5q227 0 321 -156q68 75 164.5 115.5t210.5 40.5q223 0 357.5 -138.5t134.5 -367.5 q0 -46 -2 -71h-760q13 -148 86 -224.5t194 -76.5q96 0 157 44.5t81 127.5l225 -74q-67 -127 -183.5 -198.5t-277.5 -71.5q-133 0 -239.5 48t-175.5 138q-64 -88 -167.5 -137t-232.5 -49q-180 0 -273 74t-93 202zM305 270q0 -58 43.5 -93.5t126.5 -35.5q110 0 187 66t77 182 v60q-2 16 -2 53v2q-41 -16 -107 -30t-117.5 -25t-101.5 -30t-78 -56t-28 -93zM979 600h522q-8 128 -73 197t-179 69q-115 0 -184 -69t-86 -197z" />
<glyph unicode="&#xe7;" horiz-adv-x="1191" d="M78 504q0 150 66.5 269.5t190 188t283.5 68.5q188 0 319 -93.5t179 -252.5l-223 -53q-53 223 -272 223q-144 0 -225 -94.5t-81 -255.5q0 -160 81.5 -254t224.5 -94q111 0 179.5 59.5t92.5 167.5l225 -49q-45 -159 -171 -254.5t-310 -99.5l-53 -80h12q76 0 132 -42.5 t56 -123.5q0 -90 -68.5 -142.5t-172.5 -52.5q-115 0 -197 62l84 102q49 -43 107 -43q37 0 60.5 20.5t23.5 53.5t-23.5 53t-62.5 20q-30 0 -70 -12l-37 31l66 166q-190 37 -303 176.5t-113 335.5z" />
<glyph unicode="&#xe8;" horiz-adv-x="1155" d="M78 502q0 236 142 382t366 146q223 0 357 -138.5t134 -367.5q0 -46 -2 -71h-760q13 -148 86.5 -224.5t194.5 -76.5q96 0 157 44.5t81 127.5l225 -74q-67 -127 -183.5 -198.5t-277.5 -71.5q-234 0 -377 142.5t-143 379.5zM225 1382h320l121 -270h-185zM319 600h523 q-8 128 -73 197t-179 69q-115 0 -184.5 -69t-86.5 -197z" />
<glyph unicode="&#xe9;" horiz-adv-x="1155" d="M78 502q0 236 142 382t366 146q223 0 357 -138.5t134 -367.5q0 -46 -2 -71h-760q13 -148 86.5 -224.5t194.5 -76.5q96 0 157 44.5t81 127.5l225 -74q-67 -127 -183.5 -198.5t-277.5 -71.5q-234 0 -377 142.5t-143 379.5zM319 600h523q-8 128 -73 197t-179 69 q-115 0 -184.5 -69t-86.5 -197zM485 1096l121 270h320l-256 -270h-185z" />
<glyph unicode="&#xea;" horiz-adv-x="1155" d="M78 502q0 236 142 382t366 146q223 0 357 -138.5t134 -367.5q0 -46 -2 -71h-760q13 -148 86.5 -224.5t194.5 -76.5q96 0 157 44.5t81 127.5l225 -74q-67 -127 -183.5 -198.5t-277.5 -71.5q-234 0 -377 142.5t-143 379.5zM246 1096l237 270h185l241 -270h-176l-153 118 l-154 -118h-180zM319 600h523q-8 128 -73 197t-179 69q-115 0 -184.5 -69t-86.5 -197z" />
<glyph unicode="&#xeb;" horiz-adv-x="1155" d="M78 502q0 236 142 382t366 146q223 0 357 -138.5t134 -367.5q0 -46 -2 -71h-760q13 -148 86.5 -224.5t194.5 -76.5q96 0 157 44.5t81 127.5l225 -74q-67 -127 -183.5 -198.5t-277.5 -71.5q-234 0 -377 142.5t-143 379.5zM231 1321q0 65 42 106t106 41q66 0 108.5 -40.5 t42.5 -106.5q0 -65 -42 -105t-109 -40q-64 0 -106 40t-42 105zM319 600h523q-8 128 -73 197t-179 69q-115 0 -184.5 -69t-86.5 -197zM657 1321q0 65 42 106t106 41q66 0 108.5 -40.5t42.5 -106.5q0 -65 -42 -105t-109 -40q-64 0 -106 40t-42 105z" />
<glyph unicode="&#xec;" horiz-adv-x="528" d="M-88 1382h319l121 -270h-184zM147 0v1010h234v-1010h-234z" />
<glyph unicode="&#xed;" horiz-adv-x="528" d="M147 0v1010h234v-1010h-234zM172 1096l121 270h319l-256 -270h-184z" />
<glyph unicode="&#xee;" horiz-adv-x="528" d="M-68 1163l238 271h184l242 -271h-176l-154 119l-153 -119h-181zM147 0v1010h234v-1010h-234z" />
<glyph unicode="&#xef;" horiz-adv-x="528" d="M-96 1321q0 65 41.5 106t105.5 41q67 0 109.5 -41t42.5 -106t-42.5 -105t-109.5 -40q-64 0 -105.5 40t-41.5 105zM147 0v1010h234v-1010h-234zM330 1321q0 65 41.5 106t105.5 41q67 0 109.5 -41t42.5 -106t-42.5 -105t-109.5 -40q-64 0 -105.5 40t-41.5 105z" />
<glyph unicode="&#xf0;" d="M78 498q0 221 138 365.5t357 144.5q194 0 328 -125q-120 186 -344 301l-272 -115l-47 105l174 73q-91 34 -254 78l256 123q109 -40 221 -107l190 82l47 -106l-122 -51q196 -149 304.5 -347.5t108.5 -406.5q0 -236 -150 -384t-392 -148t-392.5 146.5t-150.5 371.5z M315 496q0 -159 81 -249.5t225 -90.5t224.5 90.5t80.5 249.5t-82.5 248.5t-225.5 89.5q-144 0 -223.5 -89t-79.5 -249z" />
<glyph unicode="&#xf1;" horiz-adv-x="1210" d="M147 0v1010h234v-176q91 196 324 196q172 0 269 -105t97 -294v-631h-231v608q0 112 -58.5 176t-154.5 64q-105 0 -170 -70.5t-76 -185.5v-592h-234zM262 1255q22 108 76.5 169t132.5 61q44 0 89.5 -22t86.5 -44t74 -22q57 0 92 82l119 -31q-24 -106 -79 -167.5 t-132 -61.5q-44 0 -89.5 22t-86 44t-72.5 22q-31 0 -53 -19t-41 -63z" />
<glyph unicode="&#xf2;" d="M78 504q0 228 150.5 377t392.5 149t392 -149t150 -377t-150 -376t-392 -148t-392.5 148t-150.5 376zM268 1382h320l121 -270h-185zM315 504q0 -160 81.5 -254t224.5 -94t224 94t81 254q0 161 -81 255.5t-224 94.5q-144 0 -225 -94.5t-81 -255.5z" />
<glyph unicode="&#xf3;" d="M78 504q0 228 150.5 377t392.5 149t392 -149t150 -377t-150 -376t-392 -148t-392.5 148t-150.5 376zM315 504q0 -160 81.5 -254t224.5 -94t224 94t81 254q0 161 -81 255.5t-224 94.5q-144 0 -225 -94.5t-81 -255.5zM528 1096l121 270h320l-256 -270h-185z" />
<glyph unicode="&#xf4;" d="M78 504q0 228 150.5 377t392.5 149t392 -149t150 -377t-150 -376t-392 -148t-392.5 148t-150.5 376zM289 1096l237 270h185l241 -270h-176l-153 118l-154 -118h-180zM315 504q0 -160 81.5 -254t224.5 -94t224 94t81 254q0 161 -81 255.5t-224 94.5q-144 0 -225 -94.5 t-81 -255.5z" />
<glyph unicode="&#xf5;" d="M78 504q0 228 150.5 377t392.5 149t392 -149t150 -377t-150 -376t-392 -148t-392.5 148t-150.5 376zM287 1163q22 108 76.5 169t132.5 61q44 0 89.5 -22t86 -44t73.5 -22q59 0 93 81l118 -30q-24 -106 -79 -168t-132 -62q-44 0 -89.5 22t-85.5 44t-72 22q-61 0 -95 -81z M315 504q0 -160 81.5 -254t224.5 -94t224 94t81 254q0 161 -81 255.5t-224 94.5q-144 0 -225 -94.5t-81 -255.5z" />
<glyph unicode="&#xf6;" d="M78 504q0 228 150.5 377t392.5 149t392 -149t150 -377t-150 -376t-392 -148t-392.5 148t-150.5 376zM260 1321q0 65 42 106t106 41q66 0 108.5 -40.5t42.5 -106.5q0 -65 -42 -105t-109 -40q-64 0 -106 40t-42 105zM315 504q0 -160 81.5 -254t224.5 -94t224 94t81 254 q0 161 -81 255.5t-224 94.5q-144 0 -225 -94.5t-81 -255.5zM686 1321q0 65 42 106t106 41q66 0 108.5 -40.5t42.5 -106.5q0 -65 -42 -105t-109 -40q-64 0 -106 40t-42 105z" />
<glyph unicode="&#xf7;" horiz-adv-x="1110" d="M92 592v168h926v-168h-926zM403 289q0 65 42.5 105t109.5 40t109.5 -40t42.5 -105t-42.5 -105.5t-109.5 -40.5t-109.5 40.5t-42.5 105.5zM403 1065q0 65 42.5 105t109.5 40t109.5 -40t42.5 -105t-42.5 -105t-109.5 -40t-109.5 40t-42.5 105z" />
<glyph unicode="&#xf8;" d="M78 504q0 228 150.5 377t392.5 149q160 0 286 -69l135 163l107 -84l-133 -161q147 -147 147 -375t-150 -376t-392 -148q-168 0 -289 71l-125 -151l-109 86l123 149q-143 143 -143 369zM313 504q0 -118 45 -203l426 512q-67 43 -163 43q-144 0 -226 -95.5t-82 -256.5z M453 199q73 -45 168 -45q144 0 225.5 94.5t81.5 255.5q0 127 -49 209z" />
<glyph unicode="&#xf9;" horiz-adv-x="1210" d="M139 379v631h232v-609q0 -112 58.5 -175.5t154.5 -63.5q105 0 169.5 70.5t75.5 185.5v592h234v-1010h-234v176q-91 -196 -323 -196q-172 0 -269.5 105.5t-97.5 293.5zM254 1382h319l121 -270h-184z" />
<glyph unicode="&#xfa;" horiz-adv-x="1210" d="M139 379v631h232v-609q0 -112 58.5 -175.5t154.5 -63.5q105 0 169.5 70.5t75.5 185.5v592h234v-1010h-234v176q-91 -196 -323 -196q-172 0 -269.5 105.5t-97.5 293.5zM514 1096l121 270h319l-256 -270h-184z" />
<glyph unicode="&#xfb;" horiz-adv-x="1210" d="M139 379v631h232v-609q0 -112 58.5 -175.5t154.5 -63.5q105 0 169.5 70.5t75.5 185.5v592h234v-1010h-234v176q-91 -196 -323 -196q-172 0 -269.5 105.5t-97.5 293.5zM274 1163l238 271h184l242 -271h-176l-154 119l-153 -119h-181z" />
<glyph unicode="&#xfc;" horiz-adv-x="1210" d="M139 379v631h232v-609q0 -112 58.5 -175.5t154.5 -63.5q105 0 169.5 70.5t75.5 185.5v592h234v-1010h-234v176q-91 -196 -323 -196q-172 0 -269.5 105.5t-97.5 293.5zM246 1321q0 65 41.5 106t105.5 41q67 0 109.5 -41t42.5 -106t-42.5 -105t-109.5 -40q-64 0 -105.5 40 t-41.5 105zM672 1321q0 65 41.5 106t105.5 41q67 0 109.5 -41t42.5 -106t-42.5 -105t-109.5 -40q-64 0 -105.5 40t-41.5 105z" />
<glyph unicode="&#xfd;" horiz-adv-x="1130" d="M43 1010h258l287 -676l268 676h231l-632 -1440h-279l287 506zM473 1096l121 270h319l-256 -270h-184z" />
<glyph unicode="&#xfe;" horiz-adv-x="1282" d="M147 -430v1864h234v-598q98 194 346 194q214 0 345.5 -146t131.5 -380t-131 -379t-346 -145q-248 0 -346 194v-604h-234zM373 504q0 -161 80 -253.5t219 -92.5q131 0 214 96.5t83 249.5q0 155 -83 251.5t-214 96.5q-140 0 -219.5 -92.5t-79.5 -255.5z" />
<glyph unicode="&#xff;" horiz-adv-x="1130" d="M43 1010h258l287 -676l268 676h231l-632 -1440h-279l287 506zM215 1292q0 65 41.5 106.5t105.5 41.5q66 0 109 -41t43 -107q0 -65 -42.5 -105t-109.5 -40q-64 0 -105.5 40t-41.5 105zM641 1292q0 65 41.5 106.5t105.5 41.5q66 0 109 -41t43 -107q0 -65 -42.5 -105 t-109.5 -40q-64 0 -105.5 40t-41.5 105z" />
<glyph unicode="&#x152;" horiz-adv-x="2226" d="M104 717q0 208 102.5 373t277 254.5t386.5 89.5h1241v-201h-759v-385h692v-193h-692v-454h759v-201h-1241q-212 0 -386.5 89t-277 254t-102.5 374zM371 717q0 -228 140.5 -374t356.5 -146h226v1040h-226q-216 0 -356.5 -146t-140.5 -374z" />
<glyph unicode="&#x153;" horiz-adv-x="2004" d="M78 504q0 228 150.5 377t392.5 149q132 0 239.5 -46.5t179.5 -131.5q68 85 170 131.5t226 46.5q223 0 357 -138.5t134 -367.5q0 -46 -2 -71h-760q13 -148 86.5 -224.5t194.5 -76.5q96 0 156.5 44.5t80.5 127.5l226 -74q-67 -127 -183.5 -198.5t-277.5 -71.5 q-130 0 -235 45.5t-173 130.5q-74 -84 -181 -130t-238 -46q-242 0 -392.5 148t-150.5 376zM315 504q0 -160 81.5 -254t224.5 -94t224 94t81 254q0 161 -81 255.5t-224 94.5q-144 0 -225 -94.5t-81 -255.5zM1169 600h523q-8 128 -73 197t-179 69q-115 0 -184.5 -69 t-86.5 -197z" />
<glyph unicode="&#x178;" horiz-adv-x="1333" d="M16 1434h283l379 -650l379 650h260l-522 -875v-559h-250v553zM317 1716q0 65 42 106.5t106 41.5q66 0 108.5 -41t42.5 -107q0 -65 -42 -105t-109 -40q-64 0 -106 40t-42 105zM743 1716q0 65 42 106.5t106 41.5q66 0 108.5 -41t42.5 -107q0 -65 -42 -105t-109 -40 q-64 0 -106 40t-42 105z" />
<glyph unicode="&#x2c6;" horiz-adv-x="1024" d="M180 1163l238 271h184l242 -271h-176l-154 119l-154 -119h-180z" />
<glyph unicode="&#x2dc;" horiz-adv-x="1024" d="M178 1255q22 108 76.5 169t132.5 61q44 0 89.5 -22t86.5 -44t74 -22q57 0 92 82l119 -31q-24 -106 -79 -167.5t-132 -61.5q-44 0 -89.5 22t-86 44t-72.5 22q-31 0 -53 -19t-41 -63z" />
<glyph unicode="&#x2000;" horiz-adv-x="973" />
<glyph unicode="&#x2001;" horiz-adv-x="1946" />
<glyph unicode="&#x2002;" horiz-adv-x="973" />
<glyph unicode="&#x2003;" horiz-adv-x="1946" />
<glyph unicode="&#x2004;" horiz-adv-x="648" />
<glyph unicode="&#x2005;" horiz-adv-x="486" />
<glyph unicode="&#x2006;" horiz-adv-x="324" />
<glyph unicode="&#x2007;" horiz-adv-x="324" />
<glyph unicode="&#x2008;" horiz-adv-x="243" />
<glyph unicode="&#x2009;" horiz-adv-x="389" />
<glyph unicode="&#x200a;" horiz-adv-x="108" />
<glyph unicode="&#x2010;" horiz-adv-x="837" d="M109 469v193h620v-193h-620z" />
<glyph unicode="&#x2011;" horiz-adv-x="837" d="M109 469v193h620v-193h-620z" />
<glyph unicode="&#x2012;" horiz-adv-x="837" d="M109 469v193h620v-193h-620z" />
<glyph unicode="&#x2013;" horiz-adv-x="1204" d="M109 479v170h987v-170h-987z" />
<glyph unicode="&#x2014;" horiz-adv-x="2013" d="M109 479v170h1796v-170h-1796z" />
<glyph unicode="&#x2018;" horiz-adv-x="530" d="M98 1147q0 139 79.5 229t238.5 107l16 -92q-80 -11 -138.5 -50.5t-57.5 -89.5q0 -13 8.5 -20t27.5 -12q148 -26 148 -150q0 -67 -43 -107t-113 -40q-82 0 -124 59.5t-42 165.5z" />
<glyph unicode="&#x2019;" horiz-adv-x="530" d="M98 1012q81 11 139.5 50t57.5 89q0 24 -37 33q-147 26 -147 149q0 67 43 107.5t112 40.5q82 0 124 -59.5t42 -166.5q0 -139 -79 -228.5t-238 -106.5z" />
<glyph unicode="&#x201a;" horiz-adv-x="530" d="M98 -193q81 11 139.5 50.5t57.5 89.5q0 24 -37 33q-147 26 -147 149q0 67 42.5 107t112.5 40q82 0 124 -59.5t42 -165.5q0 -139 -79.5 -229t-237.5 -107z" />
<glyph unicode="&#x201c;" horiz-adv-x="933" d="M98 1147q0 139 79.5 229t238.5 107l16 -92q-80 -11 -138.5 -50.5t-57.5 -89.5q0 -13 8.5 -20t27.5 -12q148 -26 148 -150q0 -67 -43 -107t-113 -40q-82 0 -124 59.5t-42 165.5zM502 1147q0 139 79.5 229t237.5 107l17 -92q-81 -11 -139.5 -50.5t-57.5 -89.5q0 -23 37 -32 q147 -26 147 -150q0 -67 -42.5 -107t-112.5 -40q-82 0 -124 59.5t-42 165.5z" />
<glyph unicode="&#x201d;" horiz-adv-x="933" d="M98 1012q81 11 139.5 50t57.5 89q0 24 -37 33q-147 26 -147 149q0 67 43 107.5t112 40.5q82 0 124 -59.5t42 -166.5q0 -139 -79 -228.5t-238 -106.5zM502 1012q81 11 139 50t57 89q0 24 -36 33q-148 26 -148 149q0 67 43 107.5t113 40.5q82 0 124 -59.5t42 -166.5 q0 -139 -79.5 -228.5t-238.5 -106.5z" />
<glyph unicode="&#x201e;" horiz-adv-x="933" d="M98 -193q81 11 139.5 50.5t57.5 89.5q0 24 -37 33q-147 26 -147 149q0 67 42.5 107t112.5 40q82 0 124 -59.5t42 -165.5q0 -139 -79.5 -229t-237.5 -107zM502 -193q80 11 138.5 50.5t57.5 89.5q0 24 -36 33q-148 26 -148 149q0 67 43 107t113 40q82 0 124 -59.5 t42 -165.5q0 -139 -79.5 -229t-238.5 -107z" />
<glyph unicode="&#x2022;" horiz-adv-x="845" d="M133 649q0 122 83 204.5t206 82.5q124 0 207.5 -82.5t83.5 -204.5q0 -123 -83 -203.5t-208 -80.5q-124 0 -206.5 80.5t-82.5 203.5z" />
<glyph unicode="&#x2026;" horiz-adv-x="1456" d="M113 131q0 65 43 106.5t110 41.5q68 0 112 -41t44 -107q0 -67 -44 -108t-112 -41q-67 0 -110 41t-43 108zM575 131q0 65 43.5 106.5t110.5 41.5q68 0 112 -41t44 -107q0 -67 -44 -108t-112 -41q-67 0 -110.5 41t-43.5 108zM1038 131q0 65 43.5 106.5t110.5 41.5 q68 0 112 -41t44 -107q0 -67 -44 -108t-112 -41q-67 0 -110.5 41t-43.5 108z" />
<glyph unicode="&#x202f;" horiz-adv-x="389" />
<glyph unicode="&#x2039;" horiz-adv-x="675" d="M102 494v73l246 351h238l-312 -388l312 -385h-238z" />
<glyph unicode="&#x203a;" horiz-adv-x="675" d="M90 145l311 385l-311 388h238l245 -351v-73l-245 -349h-238z" />
<glyph unicode="&#x205f;" horiz-adv-x="486" />
<glyph unicode="&#x20ac;" horiz-adv-x="1415" d="M45 502v125h137q-2 29 -2 88q0 35 2 53h-137v125h148q38 265 189 413t384 148q211 0 355 -122t200 -343l-244 -51q-56 317 -311 317q-270 0 -317 -362h421l-14 -125h-418v-53q0 -59 2 -88h398l-15 -125h-368q56 -324 311 -324t311 318l244 -52q-56 -221 -200 -342.5 t-355 -121.5q-225 0 -373 137.5t-194 384.5h-154z" />
<glyph unicode="&#x2122;" horiz-adv-x="1540" d="M61 1315v121h564v-121h-205v-529h-152v529h-207zM711 786v650h198l181 -324l180 324h194v-650h-149v500l-223 -412h-25l-221 416v-504h-135z" />
<glyph unicode="&#x25fc;" horiz-adv-x="1013" d="M0 0v1014h1014v-1014h-1014z" />
<glyph unicode="&#xfb02;" horiz-adv-x="1269" d="M33 844v166h155v65q0 178 119 278.5t311 100.5q79 0 127 -10v-187q-39 23 -110 23q-96 0 -155.5 -51t-59.5 -156v-63h465v424h233v-1434h-233v844h-465v-844h-232v844h-155z" />
<glyph unicode="&#xfb03;" horiz-adv-x="1968" d="M33 844v166h155v65q0 178 119 278.5t311 100.5q79 0 127 -10v-187q-39 23 -110 23q-96 0 -155.5 -51t-59.5 -156v-63h465v65q0 178 119 278.5t311 100.5q79 0 127 -10v-187q-39 23 -111 23q-96 0 -155.5 -51t-59.5 -156v-63h703v-1010h-234v844h-469v-844h-231v844h-465 v-844h-232v844h-155zM1548 1319q0 67 43.5 108t110.5 41q68 0 112 -41t44 -108q0 -66 -44 -107t-112 -41q-67 0 -110.5 41.5t-43.5 106.5z" />
<glyph unicode="&#xfb04;" horiz-adv-x="1966" d="M33 844v166h155v65q0 178 119 278.5t311 100.5q79 0 127 -10v-187q-39 23 -110 23q-96 0 -155.5 -51t-59.5 -156v-63h465v65q0 178 119 278.5t311 100.5q79 0 127 -10v-187q-39 23 -111 23q-96 0 -155.5 -51t-59.5 -156v-63h465v424h234v-1434h-234v844h-465v-844h-231 v844h-465v-844h-232v844h-155z" />
</font>
</defs>
</svg>
