<svg width="39" height="44" viewBox="0 0 39 44" fill="none" xmlns="http://www.w3.org/2000/svg">
<path d="M17.5347 1.10862C18.7546 0.420508 20.2454 0.420507 21.4653 1.10862L36.9653 9.85221C38.2224 10.5614 39 11.8928 39 13.3361V30.6639C39 32.1072 38.2224 33.4386 36.9653 34.1478L21.4653 42.8914C20.2454 43.5795 18.7546 43.5795 17.5347 42.8914L2.03472 34.1478C0.777588 33.4386 0 32.1072 0 30.6639V13.3361C0 11.8928 0.777587 10.5614 2.03472 9.85221L17.5347 1.10862Z" fill="#F7F9FB"/>
<path fill-rule="evenodd" clip-rule="evenodd" d="M19.5002 32.5599C13.8327 32.5599 11.5229 28.7904 11.5229 26.3999H14.7139C14.7139 27.0894 15.595 29.4799 19.5002 29.4799C23.4054 29.4799 24.2866 27.0894 24.2866 26.3999H27.4775C27.4775 28.7904 25.1677 32.5599 19.5002 32.5599Z" fill="#4B5161"/>
<path fill-rule="evenodd" clip-rule="evenodd" d="M17.857 14.08L20.8431 14.08L20.8436 17.3279C20.8442 19.0486 20.8453 20.957 20.8475 21.7189L20.8475 21.7234C20.8475 22.6027 20.4331 23.3541 19.9436 23.8553C19.4541 24.3565 18.7202 24.7808 17.8614 24.7808H16.8057L16.8057 21.7234H17.7969C17.7971 21.7232 17.7967 21.7235 17.7969 21.7234C17.8074 21.7157 17.8205 21.7053 17.8321 21.6934C17.8438 21.6815 17.8535 21.6695 17.8609 21.6587C17.861 21.6586 17.8609 21.6588 17.8609 21.6587C17.8589 20.8506 17.8581 18.9979 17.8575 17.3289L17.857 14.08Z" fill="#4B5161"/>
<path d="M25.1023 14.08H27.7968V18.7616H25.1023V14.08Z" fill="#4B5161"/>
<path d="M11.2036 14.08H13.8982V18.7616H11.2036V14.08Z" fill="#4B5161"/>
<path d="M17.7804 1.54411C18.8477 0.942011 20.1523 0.942011 21.2196 1.54411L36.7196 10.2877C37.8196 10.9082 38.5 12.0732 38.5 13.3361V30.6639C38.5 31.9268 37.8196 33.0918 36.7196 33.7123L21.2196 42.4559C20.1523 43.058 18.8477 43.058 17.7804 42.4559L2.28038 33.7123C1.18039 33.0918 0.5 31.9268 0.5 30.6639V13.3361C0.5 12.0732 1.18039 10.9082 2.28038 10.2877L17.7804 1.54411Z" stroke="#EFF0F4"/>
</svg>
