<?xml version="1.0" encoding="UTF-8"?>
<svg version="1.1" xmlns="http://www.w3.org/2000/svg" xmlns:xlink="http://www.w3.org/1999/xlink">
<defs>

</defs>
<symbol id="i-chevron-left" viewBox="0 0 24 24" fill="none" xmlns="http://www.w3.org/2000/svg"><path fill-rule="evenodd" clip-rule="evenodd" d="M9.414 12l7.293 7.293-1.414 1.414L6.586 12l8.707-8.707 1.414 1.414L9.414 12z" fill="#DEE1E9"/></symbol>
<symbol id="i-chevron-right" viewBox="0 0 24 24" fill="none" xmlns="http://www.w3.org/2000/svg"><path fill-rule="evenodd" clip-rule="evenodd" d="M14.586 12L7.293 4.707l1.414-1.414L17.414 12l-8.707 8.707-1.414-1.414L14.586 12z" fill="#4B5161"/></symbol>
<symbol id="i-comment-blue" viewBox="0 0 14 14" fill="none" xmlns="http://www.w3.org/2000/svg"><path d="M3.76 12.828a6.667 6.667 0 10-2.588-2.588l-.839 3.427 3.427-.84z" fill="#042261"/></symbol>
<symbol id="i-comment" viewBox="0 0 14 14" xmlns="http://www.w3.org/2000/svg"><path d="M3.76 12.828a6.667 6.667 0 10-2.588-2.588l-.839 3.427 3.427-.84z" fill="currentColor"/></symbol>
<symbol id="i-conversation" viewBox="0 0 79 86" fill="none" xmlns="http://www.w3.org/2000/svg"><path d="M3.922 38.477a.698.698 0 00-.856-.482l-.606.203-.174-.608a.7.7 0 00-.86-.485.698.698 0 00-.484.862l.174.608-.606.174a.698.698 0 00-.154 1.284.694.694 0 00.53.064l.606-.175.174.608a.7.7 0 00.86.485.698.698 0 00.484-.862l-.174-.608.606-.174a.696.696 0 00.48-.894zM49.446 31.563a1.564 1.564 0 00-.87-.831l-22.67-8.762a1.57 1.57 0 00-2.034.9L16.1 43.027a9.203 9.203 0 01-.912.167h-.14c-2.089.189-3.252 1.082-3.363 2.667a3.456 3.456 0 002.047 3.289l-.223.58-.236.083-.237.084c-.961.349-2.967 1.082-3.524 2.897a2.757 2.757 0 001.546 3.317l-.495 1.284c-.7.029-1.397.096-2.089.203-1.093.23-1.755 1.152-1.81 2.513a3.371 3.371 0 001.74 2.793l-1.497 3.875a1.581 1.581 0 00.899 2.038l10.216 3.938a3.856 3.856 0 00.335 2.751v.049c-3.796 5.313-2.09 9.81-2.013 10.005a.698.698 0 101.295-.517c0-.042-1.56-4.112 2.027-8.916.293-.39.104-.816-.056-1.186a2.659 2.659 0 01-.313-1.683l3.67 1.396c-.3 1.28-.485 2.584-.55 3.896-.112 2.255.996 6.347 1.045 6.514a.699.699 0 001.1.367.698.698 0 00.244-.737c0-.042-1.094-4.05-.996-6.081a20.99 20.99 0 011.574-6.982c.161-.301.263-.63.3-.97a9.383 9.383 0 00-.307-1.397c-.16-.614-.334-1.305-.397-1.731a8.293 8.293 0 00-1.665-3.198 4.455 4.455 0 00-.94-.656 12.872 12.872 0 01-1.08-.698 6.282 6.282 0 01-2.395-3.037 3.036 3.036 0 01.272-3.08 1.981 1.981 0 011.566-.956c.738.14 1.435.443 2.041.887.438.308.922.543 1.435.698l.16.035c1.264.216 2.484.643 3.608 1.264.605.419 2.172 3.086 3.9 7.198.271.65.585 1.32.926 1.997a38.403 38.403 0 003.872 5.83.697.697 0 101.087-.873 42.233 42.233 0 01-2.57-3.596 31.383 31.383 0 003.224-3.323l.3-.335a.697.697 0 00-.02-1.016.696.696 0 00-1.011.08l-.306.321-.641.698 4.582-11.869c.174.594.349 1.243.502 1.948.063.3.23 1.006.439 1.864.418 1.788 1.128 4.769 1.184 5.216.182 1.458.23 2.931.139 4.398a34.462 34.462 0 01-.996 5.984c-.195.656-.599 1.815-1.066 3.163-1.114 3.218-2.493 7.226-2.66 8.748a.7.7 0 00.613.768h.076a.695.695 0 00.697-.622c.153-1.396 1.56-5.452 2.59-8.44.467-1.362.878-2.535 1.08-3.212a35.688 35.688 0 001.052-6.249 25.609 25.609 0 00-.147-4.72c-.062-.474-.585-2.709-1.204-5.355-.202-.852-.37-1.557-.432-1.85a22.838 22.838 0 00-1.094-3.645l7.376-19.102a1.567 1.567 0 00-.028-1.236zM13.07 45.965c.062-.852.696-1.25 2.089-1.396H15.501l-1.274 3.295a2.091 2.091 0 01-1.156-1.899zm-2.229 7.24c.272-.88 1.205-1.396 1.992-1.738l-1.275 3.31a1.333 1.333 0 01-.717-1.572zm-2.786 6.947c.042-1.061.543-1.173.697-1.208.153-.035.696-.09 1.225-.133l-1.01 2.772a1.882 1.882 0 01-.898-1.396l-.014-.035zm.258 7.373a.181.181 0 01-.105-.23l1.7-4.406 13.782 5.446c.09.405.202.852.314 1.27.111.42.223.86.258 1.055.034.195-.119.328-.196.516-.195.503-.48 1.236-.759 2.158l-14.994-5.81zM48.17 32.26L34.396 68a29.763 29.763 0 01-.349-.65 26.913 26.913 0 01-.884-1.899c-.467-1.117-2.89-6.765-4.387-7.805a12.516 12.516 0 00-4.089-1.48l-.16-.035a4.298 4.298 0 01-1.01-.531 6.19 6.19 0 00-2.646-1.09 3.274 3.274 0 00-2.849 1.53 4.455 4.455 0 00-.41 4.461 7.607 7.607 0 002.84 3.589c.46.335.864.58 1.185.775.23.122.447.267.648.433.323.41.606.852.842 1.32l-12.696-5.035 14.744-38.211a.182.182 0 01.237-.098l22.662 8.783a.182.182 0 01.104.23l-.007-.027z" fill="#4B5161"/><path d="M20.683 67.714a1.764 1.764 0 00-1.302.468 1.809 1.809 0 001.121 3.176h.09a1.802 1.802 0 001.85-1.763 1.803 1.803 0 00-1.759-1.854v-.027zm.188 2.094a.417.417 0 01-.3.105.41.41 0 01-.41-.412.412.412 0 01.41-.412.411.411 0 01.258.698l.042.021zM34.306 29.356l3.099 1.201a.696.696 0 00.901-.401.701.701 0 00-.4-.904l-3.1-1.18a.696.696 0 00-.901.401.701.701 0 00.4.904v-.02zM42.05 37.755l-16.415-6.367a1.57 1.57 0 00-2.04.872l-6.067 15.786a1.582 1.582 0 00.899 2.039L32.8 55.67l.077.035 4.025 1.557a.696.696 0 00.94-.76l-.383-2.465L42.948 39.8a1.582 1.582 0 00-.898-2.039v-.007zm-.397 1.536l-5.572 14.41a.7.7 0 00-.041.357l.223 1.452-2.786-1.09-.077-.034L18.942 48.8a.181.181 0 01-.105-.23l6.08-15.751a.181.181 0 01.23-.105l16.415 6.36a.181.181 0 01.105.231l-.014-.014zM73.108 8.166l-.613-.14.14-.614a.716.716 0 00-.544-.852.712.712 0 00-.85.545l-.139.614-.613-.14a.712.712 0 00-.855.824.716.716 0 00.549.573l.613.14-.14.614a.7.7 0 00.523.838h.153a.695.695 0 00.697-.545l.139-.614.613.14h.153a.7.7 0 00.773-.622.703.703 0 00-.62-.775l.021.014zM56.444 56.076l.978-.227-.222-.999a1.182 1.182 0 01.152-.876c.163-.26.42-.443.715-.509a1.12 1.12 0 01.858.156c.255.166.434.428.499.73l.222.998.979-.226a1.117 1.117 0 01.858.155 1.151 1.151 0 01.498.73 1.185 1.185 0 01-.153.876 1.152 1.152 0 01-.714.509l-.979.227.223.999a1.16 1.16 0 01-.14.857 1.126 1.126 0 01-.694.505h-.245a1.097 1.097 0 01-.71-.24 1.138 1.138 0 01-.402-.645l-.222-1-.979.228h-.244a1.102 1.102 0 01-.822-.244 1.159 1.159 0 01-.173-1.605c.185-.237.455-.389.75-.422l-.033.023zM20.552 12.969l-1.004.034-.043-1.022a1.181 1.181 0 00-.373-.807 1.138 1.138 0 00-.822-.306 1.12 1.12 0 00-.788.373 1.164 1.164 0 00-.294.834l.043 1.023-1.004.034a1.115 1.115 0 00-.788.374 1.15 1.15 0 00-.293.834 1.184 1.184 0 00.373.806 1.15 1.15 0 00.822.306l1.004-.034.043 1.023a1.157 1.157 0 00.357.791 1.125 1.125 0 00.8.308l.236-.064c.25-.06.471-.207.625-.416a1.14 1.14 0 00.221-.727l-.043-1.023 1.004-.035.236-.063c.293-.045.556-.206.731-.45a1.157 1.157 0 00-.247-1.596c-.24-.179-.54-.255-.834-.21l.038.013z" fill="#4B5161"/><path d="M39.438 41.449a.697.697 0 01-.25-.049l-13.456-5.285a.698.698 0 01.508-1.299l13.449 5.278a.697.697 0 01-.258 1.348l.007.007zM33.755 42.733a.696.696 0 01-.25-.049l-8.943-3.49a.72.72 0 01-.418-.93.72.72 0 01.927-.418l8.97 3.49a.71.71 0 01.553.842.712.712 0 01-.839.555zM37.147 47.383a.697.697 0 01-.251-.049l-13.456-5.3a.697.697 0 01-.27-1.15.697.697 0 01.779-.148l13.448 5.278a.697.697 0 01-.257 1.348l.007.02zM33.964 49.632a.696.696 0 01-.25-.05L22.27 45.094a.696.696 0 01-.422-.915.7.7 0 01.658-.443.695.695 0 01.272.06l11.436 4.49a.697.697 0 01.187 1.187.695.695 0 01-.445.16h.007zM34.675 53.339a.696.696 0 01-.251-.05l-4.081-1.598a.698.698 0 01.501-1.278l4.081 1.599a.697.697 0 01.188 1.188.695.695 0 01-.445.16l.007-.021zM78.906 23.093v-.041a1.444 1.444 0 00-1.31-.831l-28.7.056a1.447 1.447 0 00-1.444 1.508c.01.26.09.514.232.733l4.54 6.982-1.072 5.948c-.062.368.02.746.23 1.054l.334.496a1.442 1.442 0 001.908.447l2.703-1.599 4.004 6.102a1.47 1.47 0 001.128.656h.077a1.445 1.445 0 001.121-.53l16.019-19.55a1.454 1.454 0 00.23-1.43zm-30.08.629l.042-.084 26.2-.049-21.834 6.898-4.408-6.765zm4.715 8.127l17.467-5.516-15.844 8.336a.695.695 0 00-.188.154l-.035.042-.035.049-2.062 3.26-.34-.523 1.037-5.802zm1.797 4.97l.153-.244.077.112-.23.133zm6.268 6.382h-.09l-5.022-7.68 20.03-10.5L61.606 43.2zM53.012.353V.321a1.074 1.074 0 00-1.204-.228L35.474 7.018c-.18.08-.335.207-.45.368a1.142 1.142 0 00.253 1.587l4.154 2.912.765 3.635c.06.286.227.536.465.698l.306.208a1.076 1.076 0 001.453-.254l1.064-1.388 3.55 2.47c.187.13.41.2.637.195.125 0 .25-.02.37-.059.162-.058.309-.154.428-.281.12-.127.209-.28.26-.448l4.524-15.207a1.145 1.145 0 00-.242-1.1zm-3.397 2.079l-9.654 8.254-3.696-2.606 13.35-5.648zm-8.2 12.678l-.714-3.362 6.767-5.785-5.576 6.821a.65.65 0 00-.108.176v.104l-.37 2.046zm6.174.925l-4.263-2.964 8.118-9.942-3.855 12.906z" fill="#4B5161"/></symbol>
<symbol id="i-icon-apple" viewBox="0 0 24 24" xmlns="http://www.w3.org/2000/svg"><path fill-rule="evenodd" clip-rule="evenodd" d="M16 1c.178 1.215-.316 2.405-.969 3.247-.698.903-1.9 1.602-3.066 1.565-.213-1.163.332-2.361.995-3.167.727-.889 1.973-1.57 3.04-1.645zm3.5 17.099c.6-.921.825-1.386 1.292-2.425-3.393-1.29-3.936-6.113-.579-7.964-1.024-1.284-2.463-2.028-3.821-2.028-.979 0-1.65.255-2.26.487-.507.194-.973.371-1.54.371-.611 0-1.153-.194-1.721-.398-.624-.223-1.278-.458-2.09-.458-1.525 0-3.147.931-4.176 2.524-1.446 2.242-1.199 6.458 1.146 10.05.838 1.285 1.958 2.729 3.423 2.742.607.006 1.012-.175 1.45-.372.5-.224 1.045-.469 1.987-.474.949-.005 1.484.242 1.979.47.426.197.822.379 1.424.372 1.466-.011 2.648-1.612 3.486-2.897z" fill="currentColor"/></symbol>
<symbol id="i-icon-chevron-bottom" viewBox="0 0 12 12" fill="none" xmlns="http://www.w3.org/2000/svg"><path fill-rule="evenodd" clip-rule="evenodd" d="M9.646 3.646l.708.708L6 8.707 1.646 4.354l.708-.708L6 7.293l3.646-3.647z" fill="#4B5161"/></symbol>
<symbol id="i-icon-chevron-right" viewBox="0 0 16 16" fill="none" xmlns="http://www.w3.org/2000/svg"><path fill-rule="evenodd" clip-rule="evenodd" d="M9.724 8L4.862 3.138l.943-.943L11.609 8l-5.804 5.805-.943-.943L9.724 8z" fill="#C3C5CB"/></symbol>
<symbol id="i-icon-chevron-top" viewBox="0 0 24 24" fill="none" xmlns="http://www.w3.org/2000/svg"><path fill-rule="evenodd" clip-rule="evenodd" d="M12 9.414l-7.293 7.293-1.414-1.414L12 6.586l8.707 8.707-1.414 1.414L12 9.414z" fill="#080D1B"/></symbol>
<symbol id="i-icon-closed" viewBox="0 0 24 24" xmlns="http://www.w3.org/2000/svg"><path fill-rule="evenodd" clip-rule="evenodd" d="M13.414 12l6.364 6.364-1.414 1.414L12 13.414l-6.364 6.364-1.414-1.414L10.586 12 4.222 5.636l1.414-1.414L12 10.586l6.364-6.364 1.414 1.414L13.414 12z" fill="currentColor"/></symbol>
<symbol id="i-icon-comment-gray" viewBox="0 0 24 24" xmlns="http://www.w3.org/2000/svg"><path d="M7.14 20.742A9.959 9.959 0 0012 22c5.523 0 10-4.477 10-10S17.523 2 12 2 2 6.477 2 12c0 1.725.438 3.387 1.258 4.86L2 22l5.14-1.258z" fill="currentColor"/></symbol>
<symbol id="i-icon-comment" viewBox="0 0 16 16" xmlns="http://www.w3.org/2000/svg"><path d="M4.76 13.829a6.667 6.667 0 10-2.588-2.588l-.839 3.427 3.427-.84z" fill="currentColor"/></symbol>
<symbol id="i-icon-crown" viewBox="0 0 16 16" fill="none" xmlns="http://www.w3.org/2000/svg"><path d="M15.317 5.435L12.878 12H3.125L.686 5.435a.34.34 0 01.002-.233.402.402 0 01.155-.192.536.536 0 01.522-.035l3.95 1.939 2.28-3.376a.432.432 0 01.17-.15.527.527 0 01.473 0c.071.036.13.088.17.15l2.296 3.376 3.95-1.939a.539.539 0 01.508.047c.07.048.122.113.15.187a.34.34 0 01.005.226z" fill="#042261"/></symbol>
<symbol id="i-icon-external" viewBox="0 0 12 12" fill="none" xmlns="http://www.w3.org/2000/svg"><path fill-rule="evenodd" clip-rule="evenodd" d="M5.852 6.854L9.5 3.207V5.5h1v-4h-4v1H8.79L5.145 6.146l.707.708zM9.5 9.5V7h-1v2.5h-6v-6H5v-1H2.5a1 1 0 00-1 1v6a1 1 0 001 1h6a1 1 0 001-1z" fill="#C3C5CB"/></symbol>
<symbol id="i-icon-facebook-circle" viewBox="0 0 24 24" xmlns="http://www.w3.org/2000/svg"><path fill-rule="evenodd" clip-rule="evenodd" d="M12 0C5.373 0 0 5.373 0 12s5.373 12 12 12 12-5.373 12-12S18.627 0 12 0zm1.25 12.527v6.529h-2.7v-6.529H9.2v-2.25h1.35v-1.35C10.55 7.09 11.31 6 13.475 6h1.803v2.25h-1.127c-.843 0-.898.314-.898.901l-.003 1.126h2.04l-.238 2.25H13.25z" fill="currentColor"/></symbol>
<symbol id="i-icon-facebook-gray" viewBox="0 0 24 24" xmlns="http://www.w3.org/2000/svg"><path fill-rule="evenodd" clip-rule="evenodd" d="M13.655 20v-8h2.07L16 9.241h-2.345l.003-1.38c0-.72.064-1.105 1.033-1.105h1.294V4h-2.07c-2.489 0-3.364 1.338-3.364 3.587v1.655H9V12h1.55V20h3.105z" fill="currentColor"/></symbol>
<symbol id="i-icon-facebook-white" viewBox="0 0 24 24" fill="none" xmlns="http://www.w3.org/2000/svg"><path fill-rule="evenodd" clip-rule="evenodd" d="M13.655 20v-8h2.07L16 9.241h-2.345l.003-1.38c0-.72.064-1.105 1.033-1.105h1.294V4h-2.07c-2.489 0-3.364 1.338-3.364 3.587v1.655H9V12h1.55V20h3.105z" fill="#fff"/></symbol>
<symbol id="i-icon-facebook" viewBox="0 0 24 24" xmlns="http://www.w3.org/2000/svg"><path fill-rule="evenodd" clip-rule="evenodd" d="M13.655 20v-8h2.07L16 9.241h-2.345l.003-1.38c0-.72.064-1.105 1.033-1.105h1.294V4h-2.07c-2.489 0-3.364 1.338-3.364 3.587v1.655H9V12h1.55V20h3.105z" fill="currentColor"/></symbol>
<symbol id="i-icon-google" viewBox="0 0 24 24" xmlns="http://www.w3.org/2000/svg"><path fill-rule="evenodd" clip-rule="evenodd" d="M12 6.48c1.69 0 2.83.73 3.48 1.34l2.54-2.48C16.46 3.89 14.43 3 12 3 8.48 3 5.44 5.02 3.96 7.96l2.91 2.26C7.6 8.05 9.62 6.48 12 6.48zM20.64 12.2c0-.74-.06-1.28-.19-1.84H12v3.34h4.96c-.1.83-.64 2.08-1.84 2.92l2.84 2.2c1.7-1.57 2.68-3.88 2.68-6.62zM6.88 13.78a5.54 5.54 0 01-.3-1.78c0-.62.11-1.22.29-1.78L3.96 7.96A9.008 9.008 0 003 12c0 1.45.35 2.82.96 4.04l2.92-2.26zM12 21c2.43 0 4.47-.8 5.96-2.18l-2.84-2.2c-.76.53-1.78.9-3.12.9-2.38 0-4.4-1.57-5.12-3.74l-2.91 2.26C5.45 18.98 8.48 21 12 21z" fill="currentColor"/></symbol>
<symbol id="i-icon-like" viewBox="0 0 16 16" xmlns="http://www.w3.org/2000/svg"><path fill-rule="evenodd" clip-rule="evenodd" d="M9.875 6.453H12.5c.825 0 1.5.68 1.5 1.51V8l-.563 4.528c-.15.868-.862 1.472-1.687 1.472H8a5.348 5.348 0 01-2.287-.528L5 13.094V7.245L6.875 4.83V2.755c0-.264.112-.453.3-.604a.723.723 0 01.675-.113c1.313.377 2.025 1.736 2.025 2.905v1.51zm-7.5.377h1.5c.225 0 .375.151.375.378v6.415c0 .226-.15.377-.375.377h-1.5C2.15 14 2 13.85 2 13.623V7.208c0-.227.15-.378.375-.378z" fill="currentColor"/></symbol>
<symbol id="i-icon-logout" viewBox="0 0 16 16" fill="none" xmlns="http://www.w3.org/2000/svg"><path d="M13.024 7.263H4.889a.668.668 0 00-.671.67c0 .373.298.67.67.67h8.136l-1.654 1.67a.666.666 0 000 .953.666.666 0 00.954 0L15.14 8.41a.69.69 0 00.194-.477.718.718 0 00-.194-.476l-2.831-2.802a.652.652 0 00-.477-.193.597.597 0 00-.462.193.666.666 0 000 .954l1.654 1.654z" fill="#878B96"/><path d="M1.834 14.013h6.839c.373 0 .67-.298.67-.67v-2.608a.668.668 0 00-.67-.67.668.668 0 00-.67.67v1.937H2.504V3.195h5.499v1.937c0 .373.298.67.67.67.373 0 .67-.297.67-.67V2.525a.668.668 0 00-.67-.67h-6.84a.668.668 0 00-.67.67v10.802a.68.68 0 00.67.686z" fill="#878B96"/></symbol>
<symbol id="i-icon-maximize" viewBox="0 0 24 24" xmlns="http://www.w3.org/2000/svg"><path fill-rule="evenodd" clip-rule="evenodd" d="M5.6 5.6V12H4V4h8v1.6H5.6zm9.366 4.566L18.4 6.73V9.6H20V4h-5.6v1.6h2.869l-3.435 3.434 1.132 1.132zM18.4 12v6.4H12V20h8v-8h-1.6zm-8.8 8v-1.6H6.731l3.435-3.434-1.132-1.132L5.6 17.27V14.4H4V20h5.6z" fill="currentColor"/></symbol>
<symbol id="i-icon-menu" viewBox="0 0 24 24" xmlns="http://www.w3.org/2000/svg"><path fill-rule="evenodd" clip-rule="evenodd" d="M22 7V5H2v2h20zm0 4v2H2v-2h20zm0 6v2H2v-2h20z" fill="currentColor"/></symbol>
<symbol id="i-icon-notification-info" viewBox="0 0 16 16" fill="none" xmlns="http://www.w3.org/2000/svg"><path fill-rule="evenodd" clip-rule="evenodd" d="M8 15.333A7.333 7.333 0 118 .667a7.333 7.333 0 010 14.666z" fill="#C3C5CB"/><path fill-rule="evenodd" clip-rule="evenodd" d="M8.67 9.332h.665v1.333H6.67V9.332h.666V8H6.67V6.666h2v2.666zM8 5.999a.667.667 0 100-1.334A.667.667 0 008 6z" fill="#fff"/></symbol>
<symbol id="i-icon-notification" viewBox="0 0 24 24" xmlns="http://www.w3.org/2000/svg"><path fill-rule="evenodd" clip-rule="evenodd" d="M5.794 17.345c-.486 0-.926-.185-1.273-.532a1.79 1.79 0 01.07-2.592l.578-.509c.37-.324.578-.81.578-1.319V9.572C5.747 6.54 8.061 3 11.994 3h.347c3.934 0 6.247 3.563 6.247 6.57v2.823c0 .51.208.972.579 1.32l.578.508a1.79 1.79 0 01.07 2.592 1.767 1.767 0 01-1.273.532H5.793zm8.792 1.04a2.429 2.429 0 11-4.86 0h4.86z" fill="currentColor"/></symbol>
<symbol id="i-icon-reply" viewBox="0 0 16 16" xmlns="http://www.w3.org/2000/svg"><path d="M8.546 9.902c.266.048.957.434.957.792v1.576c0 .328.334.514.566.315l4.459-3.818a.427.427 0 00.008-.623l-4.46-4.055c-.23-.21-.573-.025-.573.308v1.546c0 .358-.31.322-.642.346-.177.024-.465.024-.864.024-1.413 0-3.676-.721-6.141-2.224-.315-.192-.654.125-.471.47 1.175 2.22 3.44 4.378 7.161 5.343z" fill="currentColor"/></symbol>
<symbol id="i-icon-title-2" viewBox="0 0 60 40" fill="none" xmlns="http://www.w3.org/2000/svg"><path opacity=".15" d="M9 0h43l-9 40H0L9 0z" fill="#FFE500"/><path d="M6.737 7H16l-1.737 8H5l1.737-8z" fill="#E4378A"/><path d="M54.105 31H60l-1.105 5H53l1.105-5z" fill="#FFE822"/><path d="M8.947 25H14l-.947 4H8l.947-4z" fill="#E4378A"/><path d="M3.21 3H15l-2.21 10H1L3.21 3z" fill="#FFE822"/></symbol>
<symbol id="i-icon-title" viewBox="0 0 60 40" fill="none" xmlns="http://www.w3.org/2000/svg"><path opacity=".15" d="M9 0h43l-9 40H0L9 0z" fill="#53F5E6"/><path d="M6.737 7H16l-1.737 8H5l1.737-8z" fill="#FF2FD1"/><path d="M54.105 31H60l-1.105 5H53l1.105-5z" fill="#53F5E6"/><path d="M8.947 25H14l-.947 4H8l.947-4z" fill="#FF2FD1"/><path d="M3.21 3H15l-2.21 10H1L3.21 3z" fill="#53F5E6"/></symbol>
<symbol id="i-icon-youtube-circle" viewBox="0 0 24 24" fill="none" xmlns="http://www.w3.org/2000/svg"><path fill-rule="evenodd" clip-rule="evenodd" d="M12 0C5.373 0 0 5.373 0 12s5.373 12 12 12 12-5.373 12-12S18.627 0 12 0zm5 7.875c.552.15.985.596 1.133 1.162.267 1.025.267 3.163.267 3.163s0 2.139-.267 3.164A1.625 1.625 0 0117 16.526c-.998.274-5 .274-5 .274s-4.004 0-5.002-.274a1.625 1.625 0 01-1.131-1.162C5.6 14.338 5.6 12.2 5.6 12.2s0-2.138.268-3.163c.147-.566.58-1.011 1.131-1.162C7.997 7.6 12 7.6 12 7.6s4.003 0 5 .275z" fill="#080D1B"/><path fill-rule="evenodd" clip-rule="evenodd" d="M10.8 14.4v-4l3.2 2-3.2 2z" fill="#080D1B"/></symbol>
<symbol id="i-menu" viewBox="0 0 16 10" fill="none" xmlns="http://www.w3.org/2000/svg"><path fill-rule="evenodd" clip-rule="evenodd" d="M15.143 1.429V0H.857v1.429h14.286zm0 2.857v1.428H.857V4.286h14.286zm0 4.285V10H.857V8.571h14.286z" fill="#042261"/></symbol>
<symbol id="i-sponsor" viewBox="0 0 16 16" fill="none" xmlns="http://www.w3.org/2000/svg"><path fill-rule="evenodd" clip-rule="evenodd" d="M8 15.333A7.333 7.333 0 118 .667a7.333 7.333 0 010 14.666z" fill="#0CA495"/><path fill-rule="evenodd" clip-rule="evenodd" d="M8.67 9.332h.665v1.333H6.67V9.332h.666V8H6.67V6.666h2v2.666zM8 5.999a.667.667 0 100-1.334A.667.667 0 008 6z" fill="#fff"/></symbol>
</svg>